<?xml version="1.0" encoding="UTF-8"?>
<svg version="1.0" xmlns="http://www.w3.org/2000/svg" xmlns:xlink="http://www.w3.org/1999/xlink" width="560" height="280">
	<rect width="560" height="280" fill="#080"/>
	<rect id="white" y="40" width="560" height="40" fill="#fff"/>
	<use xlink:href="#white" y="80"/>
	<use xlink:href="#white" y="160"/>
	<rect width="212.8" height="120" fill="#ed1720"/>
	<path d="M 93.929007,72.370065 C 93.929007,72.370065 92.094109,73.138074 93.351565,87.77895 C 94.376577,99.82996 98.670112,103.75557 98.670112,103.75557 L 100.54587,111.21443 L 118.33092,111.2873 C 118.33092,111.2873 118.65366,106.66801 119.34233,105.20759 C 121.03475,101.61859 127.74141,97.516624 130.61586,91.323536 C 133.70729,87.547772 132.15856,79.843067 138.36397,72.406007 C 141.44461,68.713928 134.7541,70.276564 134.7541,70.276564 C 131.08523,72.710091 129.29302,75.566437 128.36695,77.561817 C 127.74505,81.405961 124.86697,84.620357 124.59551,81.82878 C 124.59551,81.82878 123.5495,77.00134 120.41274,67.617275 C 120.10266,64.835655 118.75672,55.2176 118.46982,47.875676 C 118.26465,43.099528 114.0837,42.811633 113.73416,47.660678 L 113.22936,66.883158 L 112.23067,44.682893 C 111.80577,38.399828 107.05193,39.33097 106.84584,44.538042 L 106.64157,67.654146 L 105.77543,45.24695 C 104.48709,40.967387 101.10331,43.503797 101.04067,48.140511 L 100.46414,69.942816 C 100.46414,69.942816 99.735538,58.003227 99.570196,52.961567 C 99.415198,49.928901 95.863741,50.152628 95.529071,54.4889 C 95.045368,60.756112 94.284909,65.873793 93.929007,72.370065 z" fill="#fff" stroke="#ed1720" stroke-width=".469"/>
	<g id="star" transform="translate(106.4,18)" fill="#fff">
		<g id="c">
			<path id="t" d="M 0,-12 V 0 H 6" transform="rotate(18 0,-12)"/>
			<use xlink:href="#t" transform="scale(-1,1)"/>
		</g>
		<use xlink:href="#c" transform="rotate(72)"/>
		<use xlink:href="#c" transform="rotate(144)"/>
		<use xlink:href="#c" transform="rotate(216)"/>
		<use xlink:href="#c" transform="rotate(288)"/>
	</g>
	<use xlink:href="#star" transform="rotate(-90 106.4,81) rotate(90 106.4,18)"/>
	<use xlink:href="#star" transform="rotate(-60 106.4,81) rotate(60 106.4,18)"/>
	<use xlink:href="#star" transform="rotate(-30 106.4,81) rotate(30 106.4,18)"/>
	<use xlink:href="#star" transform="rotate(30 106.4,81) rotate(-30 106.4,18)"/>
	<use xlink:href="#star" transform="rotate(60 106.4,81) rotate(-60 106.4,18)"/>
	<use xlink:href="#star" transform="rotate(90 106.4,81) rotate(-90 106.4,18)"/>
</svg>