<?xml version="1.0" encoding="utf-8"?>
<!-- Generator: Adobe Illustrator 13.0.0, SVG Export Plug-In  -->
<!DOCTYPE svg PUBLIC "-//W3C//DTD SVG 1.1//EN" "http://www.w3.org/Graphics/SVG/1.1/DTD/svg11.dtd" [
	<!ENTITY ns_flows "http://ns.adobe.com/Flows/1.0/">
]>
<svg version="1.1"
	 xmlns="http://www.w3.org/2000/svg" xmlns:xlink="http://www.w3.org/1999/xlink" xmlns:a="http://ns.adobe.com/AdobeSVGViewerExtensions/3.0/"
	 x="0px" y="0px" width="1000px" height="500px" viewBox="0 0 1000 500" enable-background="new 0 0 1000 500" xml:space="preserve"
	>
<defs>
</defs>
<rect fill="#08296B" width="1000" height="500"/>
<polygon fill="#FFFFFF" points="499.999,0 444.098,0 291.667,76.215 291.667,0 208.333,0 208.333,76.215 55.902,0 0,0 0,27.949 
	110.765,83.332 0,83.332 0,166.666 110.765,166.666 0,222.049 0,250 55.902,250 208.333,173.783 208.333,250 291.667,250 
	291.667,173.783 444.098,250 499.999,250 499.999,222.049 389.234,166.666 499.999,166.666 499.999,83.332 389.234,83.332 
	499.999,27.949 "/>
<polygon fill="#CF142B" points="499.999,0 462.731,0 296.065,83.332 333.333,83.332 "/>
<polygon fill="#CF142B" points="166.667,83.332 0,0 0,18.633 129.399,83.332 "/>
<polygon fill="#CF142B" points="0,250 37.268,250 203.934,166.666 166.667,166.666 "/>
<polygon fill="#CF142B" points="333.333,166.666 499.999,250 499.999,231.365 370.601,166.666 "/>
<path id="path2938_1_" fill="#CF142B" d="M225,0h50v100h225v50H275v100h-50V150H0v-50h225V0z"/>
<path fill="#FFFFFF" d="M750,114.377c-38.643,22.217-80.302,21.495-106.385,3.619c0,67.634,0,112.074,0,138.161
	c0,47.827,29.102,101.446,106.385,129.466c77.281-28.02,106.385-81.639,106.385-129.466c0-26.087,0-70.527,0-138.161
	C830.302,135.872,788.646,136.594,750,114.377z"/>
<path fill="#0073BD" d="M652.882,302.114c13.86,33.12,44.19,64.318,97.118,83.509c52.933-19.19,83.258-50.389,97.121-83.509H652.882
	z"/>
<path fill="#E77329" d="M819.918,178.021c-12.438-11.473-27.048-6.279-38.644-16.303c-9.984-8.638-24.631-12.079-35.744-11.113
	c0.728-1.448,1.692-3.138,2.417-4.586c-52.65,12.559-58.443,82.121-10.385,90.093c0.603-7.368-5.314-11.837-5.557-19.083
	c2.295,0.481,4.952,1.451,6.764,2.66c-0.724-8.215-7.966-9.896-7.729-20.05c0.482-20.531,10.906-33.256,29.706-34.782
	c8.938-0.724,21.095,2.828,24.878,10.388c1.447,2.9,4.344,6.883,6.517,9.055c2.056,2.056,2.114,1.331,2.419-1.569
	c0.637-6.124,11.557-8.859,24.392-2.896C822.331,181.402,822.439,180.348,819.918,178.021z"/>
<path fill="#E77329" d="M773.789,216.545c-3.861,2.295-8.815,10.989-16.664,11.836c0.121-2.896,0-7.609-0.481-9.417
	c-4.469,6.883-5.559,15.697-16.908,23.427c-12.74,8.676-35.351,11.454-46.852-0.966c-6.04-6.521-9.904-15.216-6.525-27.539
	c2.261-8.209,9.302-8.64,13.165-12.075c1.087-0.963,0.111-1.129-1.568-1.328c-7.127-0.845-9.201-10.727-3.141-25.601
	c1.328-3.263-0.482-3.142-4.345,3.744c-5.504,9.799-5.438,19.038-8.456,27.292c-7.246,19.806-3.441,47.522,14.913,57.425
	c-0.905,1.33-1.991,3.08-3.141,4.408C735.389,277.653,776.928,260.265,773.789,216.545z"/>
<path fill="#E77329" d="M762.198,185.147c2.414,4.83,9.419,8.212,11.591,14.732c-1.931,0-5.557,0.968-7.487,2.175
	c5.193,2.416,7.971,2.78,12.798,6.644l1.207,0.604c15.456,16.421,22.185,32.696,16.426,47.338
	c-2.896,7.368-8.927,15.604-18.718,18.719c-13.283,4.228-16.906-6.643-28.86-4.709c-0.842,0.136-0.188,0.825,0.966,1.33
	c7.489,3.259,4.887,11.57-9.297,17.872c-1.088,0.481-1.163,0.574,1.236,0.847c8.542,0.966,19.351-1.828,24.966-4.832
	c7.005-3.745,15.604-6.267,23.067-9.783c14.61-6.882,22.578-19.08,24.875-35.989c2.777,2.055,3.621,3.865,4.95,6.161
	C825.956,218.963,806.875,183.937,762.198,185.147z"/>
<circle fill="#FFFFFF" cx="719.933" cy="215.819" r="2.468"/>
<path fill="#FFFFFF" d="M766.059,231.226c-1.357,0-2.463,1.105-2.463,2.466c0,1.365,1.105,2.472,2.463,2.472
	c1.364,0,2.468-1.106,2.468-2.472C768.526,232.331,767.423,231.226,766.059,231.226z"/>
<path fill="#FFFFFF" d="M785.383,190.788c-1.363,0-2.471,1.101-2.471,2.466c0,1.364,1.107,2.468,2.471,2.468
	c1.361,0,2.465-1.104,2.465-2.468C787.848,191.889,786.744,190.788,785.383,190.788z"/>
</svg>
