<svg xmlns="http://www.w3.org/2000/svg" width="600" height="400" viewBox="0 0 3600 2400"><title>Flag of Equatorial Guinea</title>
<defs>
<style type="text/css">.str4 {stroke:#000;stroke-width:1}
.str0 {stroke:#000;stroke-width:3.5}
.str3 {stroke:#000;stroke-width:4.8}
.fil8 {fill:none}
.fil3 {fill:#0073ce}
.fil9 {fill:#009A3B}
.fil2 {fill:#3e9a00}
.fil10 {fill:#000}
.fil6 {fill:#73452B}
.fil7 {fill:#A36629}
.fil0 {fill:#e32118}
.fil4 {fill:gold}
.fil1 {fill:#fff}
.fil5 {fill:#000;fill-rule:nonzero}</style>
</defs>
<rect width="3600" class="fil0" height="2400"/>
<rect width="3600" class="fil1" height="1600"/>
<rect width="3600" class="fil2" height="800"/>
<polygon points="0,0,0,2400,900,1200" class="fil3"/>
<polygon points="2026.6,1352.1,2052.2,1388.4,2052.4,1388.3,2074.7,1354.4,2058.7,1325.3" class="fil1 str0"/>
<path class="fil1 str0" d="M1868,1457.3l1.7114,36.106s10.181-0.044882,18.876-3.1039c8.6965-3.0591,15.906-9.1335,15.906-9.1335l-1.1551-19.139-35.339-4.7303z"/>
<path class="fil1 str0" d="M1733.7,1457.3l-1.7398,34.98s-9.2468-0.36142-17.526-2.4342c-8.2795-2.0728-15.84-6.6-15.84-6.6l-9.652-24.17,44.758-1.7752z"/>
<path class="fil1 str3" d="M1608,958.77h382.67v401.33c0,134.63-175.36,31.094-190.68,102.67-26.271-73.43-190.68,33.494-190.68-110.79,0-140.04-1.311-393.21-1.311-393.21z"/>
<polygon points="1572.6,1352.1,1546.9,1388.4,1519,1342.3,1539.8,1319.7" class="fil1 str0"/>
<polygon points="1786.7,902.6,1764.5,903.61,1754.1,923.26,1742.1,904.53,1719.9,905.35,1730.2,885.62,1718.3,866.8,1740.5,865.8,1750.9,846.15,1762.9,864.88,1785.1,864.05,1774.9,883.78" class="fil4 str0"/>
<polygon points="1692.7,909.88,1671.1,915.26,1664.8,936.58,1649.4,920.6,1627.8,925.82,1633.9,904.45,1618.6,888.34,1640.2,882.96,1646.4,861.64,1661.9,877.62,1683.5,872.4,1677.4,893.77" class="fil4 str0"/>
<polygon points="1602.2,928.57,1582.3,938.55,1580.8,960.72,1562.3,948.51,1542.3,958.33,1543.6,936.14,1525.2,923.78,1545,913.8,1546.5,891.62,1565,903.84,1585,894.02,1583.7,916.21" class="fil4 str0"/>
<polygon points="1815.5,902.6,1837.7,903.61,1848.1,923.26,1860.1,904.53,1882.3,905.35,1872.1,885.62,1883.9,866.8,1861.7,865.8,1851.3,846.15,1839.3,864.88,1817.1,864.05,1827.4,883.78" class="fil4 str0"/>
<polygon points="1909.5,909.88,1931.1,915.26,1937.4,936.58,1952.8,920.6,1974.4,925.82,1968.3,904.45,1983.6,888.34,1962.1,882.96,1955.8,861.64,1940.4,877.62,1918.8,872.4,1924.9,893.77" class="fil4 str0"/>
<polygon points="2000.1,928.57,2019.9,938.55,2021.4,960.72,2040,948.51,2059.9,958.33,2058.6,936.14,2077.1,923.78,2057.2,913.8,2055.8,891.62,2037.2,903.84,2017.2,894.02,2018.5,916.21" class="fil4 str0"/>
<path class="fil1 str0" d="M1697.6,1480.5v48.508c0,33.95,206.16,33.935,206.16,0v-48.508c0,25.201-206.16,20.932-206.16,0z"/>
<path class="fil1 str0" d="M1514.2,1418c17.329,91.996,183.4,93.8,183.4,93.8s-0.093307-31.107-0.093307-31.107c-3.3555-11.6,3.3898-15.708,30.429-19.486,10.974-1.5331,5.5972-17.542,5.5972-17.542s-71.882,13.735-122.95-6.835c-68.367-27.533-78.646-81.832-78.646-81.832s-4.702,41.62-17.733,63.001z"/>
<path class="fil1 str0" d="M2087,1418c-17.327,91.996-183.4,93.8-183.4,93.8s0.093307-31.107,0.093307-31.107c3.3567-11.6-3.3886-15.708-30.428-19.486-10.974-1.5331-5.5984-17.542-5.5984-17.542s71.882,13.735,122.96-6.835c68.367-27.533,76.5-81.585,76.5-81.585s6.848,41.373,19.878,62.754z"/>
<path class="fil1 str0" d="M1526.8,1382.7c-46.2-25.026-9.7996-50.985-6.0673-125.07,7.7008,44.916,57.868,64.574,51.801,93.8-20.766,0.75827-30.567-31.383-40.6,3.4996,0,0-5.1331,27.768-5.1331,27.768z"/>
<path class="fil1 str0" d="M2073.6,1382.5c46.2-25.025,8.563-50.737,4.8284-124.82-7.6996,44.916-57.866,64.574-51.8,93.8,20.766,0.75827,30.566-31.383,40.599,3.4996,0,0,6.372,27.52,6.372,27.52z"/>
<path class="fil5" d="M1761.1,1540.7v-32.076h10.389c3.9354,0,6.5043,0.16417,7.6996,0.48543,1.8366,0.47835,3.3827,1.5236,4.6228,3.1358,1.239,1.6134,1.8602,3.698,1.8602,6.2445,0,1.9713-0.35906,3.6295-1.076,4.9665-0.71693,1.3429-1.6205,2.3965-2.726,3.1654-1.0984,0.76181-2.2181,1.2697-3.3532,1.5177-1.5449,0.30591-3.7854,0.46181-6.7216,0.46181h-4.2189v12.099h-6.476zm6.476-26.647v9.0968h3.5398c2.5535,0,4.265-0.16535,5.1224-0.50197,0.85984-0.33543,1.5307-0.85748,2.0244-1.5744,0.48543-0.71811,0.73228-1.5472,0.73228-2.4945,0-1.1658-0.3437-2.1284-1.0311-2.8902-0.68032-0.75472-1.5532-1.2331-2.5984-1.4197-0.77598-0.14882-2.3303-0.21614-4.6594-0.21614h-3.1299zm49.013,26.647h-7.05l-2.8016-7.2886h-12.822l-2.6433,7.2886h-6.8716l12.495-32.076h6.848l12.846,32.076zm-11.927-12.689l-4.4209-11.904-4.3323,11.904h8.7532zm12.576,12.689v-5.8406l16.848-20.806h-14.944v-5.4295h23.479v5.0339l-17.572,21.634h18.253v5.4083h-26.063z"/>
<path class="fil6 str4" d="M1827,1398.7s-4.8284,5.3693-14.068,1.4102c-9.2398-3.9602-10.036-257.14-10.036-257.14,19.88-21.696,36.298-29.451,36.298-29.451s12.112,10.173,12.112,10.173c-45.774,23.034-41.23,56.382-37.481,112.92,1.4043,21.185,0.97441,48.67,6.3614,74.458,6.9295,33.175,20.904,60.888,21.828,81.763,0.61063,13.664-15.014,5.8724-15.014,5.8724z"/>
<path class="fil6 str4" d="M1796.1,1108.4h17.616c-14.698,144.54-1.9394,230.99-2.0823,272.1-0.050787,14.302,8.0433,19.344,7.4728,19.974-18.146,19.99-27.09-1.4563-27.09-1.4563l4.0831-290.62z"/>
<path class="fil7 str4" d="M1768.3,1399.2c-17.416,8.25-18.854-8.6303-18.041-10.292,36.719-75.052,52.917-239.77,18.666-257.58,0,0,2.0669-16.134,2.0669-16.134,12.585,3.9165,24.544,21.135,24.544,21.135,4.9996,184.33,0.075591,260.78-2.2772,263.33-17.922,19.413-25.75-2.1673-26.001-4.3335m1.0417,3.8752z"/>
<path class="fil8 str4" d="M1767.3,1395.5c-3.6331-15.56,25.932-56.228,24.099-99.185"/>
<path class="fil8 str4" d="M1815.7,1330.6c9.0413,25.404,12.892,47.396,11.434,68.016"/>
<path class="fil9 str4" d="M1854.6,1040c6.5339-6.9425,5.9504-6.6496,17.5-7.4669,1.4587-14.7,27.351-14.432,28.576,4.1173,19.833-4.1409,23.975,8.4,16.567,20.3,18.491-4.6654,35.648-0.26693,30.924,22.25,34.066,8.6917,21.292,32.433,5.5996,38.266-1.4575,14.116-15.925,19.951-35.234,13.533-23.858,17.268-37.625,10.966-48.999-6.0661-26.426,4.5496-28.35-1.6323-40.834-16.8-20.3,9.1004-25.083,8.9256-42.699-1.8673-1.05,13.475-5.8346,9.3342-14.7,8.6339,0.70039,18.316-6.1252,26.309-22.167,20.301,12.191,24.325-18.842,35.758-34.534,14.465-14.058,1.6925-14.641-2.7992-21.699-7.6996-5.5417,19.95-27.651,16.567-32.2,5.8335-27.65-4.2579-24.442-18.666-1.8661-19.833,2.6244-16.216,16.159-12.775,25.434-11.433,0.40748-9.2173,6.7075-7.4079,11.666-5.3658-2.974-7.2921-1.2248-10.852,8.1673-13.534-12.95-16.216-5.0752-22.749,8.1661-28.467-7.4669-15.925,4.3748-15.109,14.001-16.334-1.1669-16.741,3.2669-20.183,21.699-21.466-2.3327-6.7087,1.1079-10.966,10.966-11.199-6.0083-17.559,2.0409-21.117,20.534-18.435,2.0421-24.383,55.884-12.716,51.567,21.702,14.641,1.7492,20.359,4.7244,23.566,16.566z"/>
<path class="fil8 str4" d="M1748,1031.3c4.0665,1.7764,9.1453-0.66142,10.32,10.409,8.1508-13.97,18.046-5.6433,17.636,9.9744"/>
<path class="fil8 str4" d="M1831,1023.3c-4.3465,5.5406-18.521,6.0378-17.384,22.167-5.1047-7.3795-14.176-9.7134-18.9-2.2169"/>
<path class="fil8 str4" d="M1854.7,1039.8c0.46772,4.2-0.93307,16.421-5.1319,22.05"/>
<path class="fil8 str4" d="M1917.2,1057c0.4063,0.61654-14.399-0.28701-21.108,5.1366"/>
<path class="fil8 str4" d="M1953.6,1117.4c-3.8787-2.4496-11.666-7.5827-17.382,0.46654,0.23268-4.0831,0.14528-14.642-11.317-15.166"/>
<path class="fil8 str4" d="M1918.5,1131c0.81614-10.121-1.7492-13.446-3.2669-15.749"/>
<path class="fil8 str4" d="M1886.2,1116.5c-8.6043-5.1047-15.896,3.1205-16.683,8.5169"/>
<path class="fil8 str4" d="M1828.4,1108c-0.20433-3.8492-3.763-12.249,3.3827-15.399"/>
<path class="fil8 str4" d="M1714.4,1149.7c1.7906-9.3106,8.3209-9.2776,7.7634-14.903-0.81378-8.1791-10.297-15.151-21.53-4.2295"/>
<path class="fil8 str4" d="M1722.2,1134.8c5.5996-1.6772,11.491-1.0051,14.234,2.6256"/>
<path class="fil8 str4" d="M1704.6,1097.5c4.4268-3.6378,13.971-2.8618,20.184,0.40512"/>
<path class="fil8 str4" d="M1724.5,1074.2c5.9799-0.55394,14.437-2.1,17.85,7.1173,10.879-17.733,19.133-14.904,21-10.85"/>
<path class="fil8 str4" d="M1782.6,1068.2c8.5465-2.7709,22.02,5.2205,30.45,18.55,3.763-10.706,9.45-9.2173,15.633-9.3342"/>
<path class="fil8 str4" d="M1867,1087.1c12.804-6.124,21.409,5.7165,25.083,10.5,5.6598-7.4669,11.113-7.2921,17.151-7.2331"/>
<path class="fil8 str4" d="M1745.7,1110.5c3.7535-4.0417,10.064-5.4449,15.014-2.3114-0.66024-9.5681,5.6917-13.28,9.5693-11.549"/>
<path class="fil10" d="M1555.2,1417l4.5945,4.1173-11.043,12.324c-1.7516,1.9559-2.8311,3.2752-3.2362,3.9567-0.6378,1.1079-0.83976,2.2748-0.60472,3.5008,0.23386,1.2272,0.99331,2.4154,2.276,3.5658,1.3039,1.1669,2.5252,1.7823,3.6661,1.8437,1.1398,0.059055,2.1236-0.2374,2.9539-0.89409,0.83032-0.65551,2.0516-1.8827,3.665-3.6839l11.28-12.588,4.5945,4.1173-10.71,11.952c-2.4472,2.7319-4.3004,4.5508-5.5594,5.4555-1.2591,0.90591-2.5701,1.4468-3.9331,1.6252-1.363,0.17835-2.8087-0.0023622-4.3394-0.54331-1.5295-0.54094-3.1949-1.6181-4.9949-3.2315-2.1732-1.9476-3.5976-3.6756-4.2697-5.1827-0.67323-1.5083-0.97559-2.9551-0.90945-4.3406,0.067323-1.3866,0.38976-2.6114,0.97205-3.678,0.86693-1.572,2.4425-3.6319,4.7232-6.1772l10.876-12.138zm3.0284,43.038l16.38-25.789,5.0669,3.2173-0.38268,23.927,10.938-17.223,4.8378,3.0732-16.38,25.791-5.2252-3.3189,0.28346-23.422-10.681,16.819-4.8378-3.0732zm26.271,15.651l13.363-27.476,5.5465,2.6976-13.362,27.476-5.5476-2.6976zm21.03-23.355l10.618,3.7937c2.3941,0.8563,4.1539,1.6913,5.2784,2.5075,1.5106,1.0996,2.6398,2.5004,3.3909,4.1988,0.75,1.6996,1.1114,3.5799,1.0819,5.6433-0.028346,2.0622-0.52559,4.4409-1.4882,7.1362-0.84567,2.3681-1.8697,4.3039-3.072,5.8075-1.4669,1.8354-3.0992,3.163-4.8968,3.9815-1.3583,0.62126-2.9917,0.90118-4.9028,0.8374-1.4268-0.051968-3.2138-0.46181-5.3587-1.2295l-10.931-3.9059,10.28-28.77zm4.0713,6.9425l-6.8102,19.057,4.337,1.5496c1.6228,0.57992,2.8252,0.90591,3.6106,0.9815,1.0264,0.10039,1.9512-0.020079,2.7732-0.36024,0.82323-0.34016,1.6606-1.0854,2.5134-2.2335,0.85276-1.148,1.6772-2.8346,2.472-5.0598,0.79488-2.2228,1.2083-4.0004,1.2413-5.3315,0.033071-1.3299-0.18543-2.4567-0.65197-3.3756-0.4689-0.92008-1.2035-1.6925-2.2051-2.3161-0.74646-0.47244-2.3032-1.1327-4.6713-1.9784l-2.6091-0.93307zm41.949,36.998l-6.5882-1.2791-1.2957-7.3216-11.988-2.3268-3.7984,6.3319-6.4252-1.2472,17.506-27.724,6.4028,1.2425,6.1866,32.324zm-8.8465-14.03l-1.9724-11.932-6.2114,10.343,8.1839,1.5886zm13.554-16.312l11.263,0.51142c2.5406,0.11575,4.4669,0.39803,5.7815,0.84685,1.7669,0.60945,3.2575,1.6158,4.4728,3.0201,1.2165,1.4043,2.113,3.098,2.6917,5.0776,0.57638,1.9807,0.79961,4.3996,0.67087,7.2591-0.11457,2.5122-0.52559,4.663-1.2331,6.4535-0.86339,2.1862-2.035,3.9331-3.5126,5.2429-1.1161,0.99213-2.5961,1.7398-4.4409,2.2394-1.3795,0.3685-3.2079,0.50079-5.485,0.39803l-11.596-0.52677,1.3878-30.522zm5.9268,5.4437l-0.91772,20.215,4.6016,0.21024c1.7209,0.077953,2.9669,0.036614,3.7394-0.12284,1.011-0.20433,1.8591-0.58937,2.5453-1.1563,0.6874-0.56693,1.2685-1.5248,1.7468-2.8736,0.47835-1.3476,0.77244-3.202,0.87874-5.5618,0.10748-2.3587-0.017716-4.1787-0.37795-5.4614-0.35906-1.2827-0.89646-2.2937-1.6146-3.0354-0.71575-0.74291-1.6453-1.2638-2.7862-1.5673-0.85158-0.23268-2.5335-0.4063-5.0457-0.51968l-2.7697-0.12638z"/>
<path class="fil10" d="M1918.4,1472.5l5.9185-0.70984,2.2323,18.615c0.29173,2.4331,0.30236,4.3311,0.03189,5.6929-0.36968,1.7811-1.2484,3.2799-2.635,4.4976s-3.3165,1.9736-5.7909,2.2713c-2.902,0.34842-5.2323-0.19606-6.9921-1.6323-1.7587-1.4386-2.8335-3.7276-3.2244-6.8681l5.5193-1.3134c0.26811,1.6772,0.65906,2.837,1.1705,3.4807,0.76772,0.98032,1.8083,1.3913,3.1181,1.2342,1.3252-0.15945,2.2146-0.64842,2.6728-1.4693,0.45709-0.82205,0.54331-2.4236,0.25866-4.8035l-2.2795-18.996zm9.7429-1.1421l5.8547-1.213,3.2528,15.709c0.51614,2.4921,0.92362,4.0937,1.2201,4.8024,0.49724,1.135,1.2921,1.963,2.3823,2.4874,1.0925,0.52323,2.4567,0.61535,4.0913,0.27756,1.6618-0.34488,2.8453-0.9437,3.548-1.7965,0.70394-0.85394,1.0382-1.7941,1.0051-2.8193-0.03189-1.024-0.28701-2.6835-0.76299-4.9784l-3.3201-16.044,5.8547-1.213,3.1547,15.233c0.71929,3.4819,1.0713,5.974,1.0524,7.4776-0.018898,1.5035-0.35079,2.837-0.99685,4.0028s-1.6205,2.1898-2.9232,3.0709c-1.3028,0.88228-3.1028,1.5602-5.3976,2.035-2.7685,0.57402-4.9358,0.68976-6.4984,0.34606-1.5638-0.3437-2.8665-0.94016-3.9094-1.7906-1.0429-0.85039-1.8118-1.8083-2.3079-2.8748-0.72638-1.5827-1.4256-3.9968-2.0965-7.2402l-3.2032-15.471zm30.925,13.871l5.3799-2.2866c0.92126,1.7575,2.0291,2.9126,3.326,3.4654,1.2957,0.55158,2.811,0.55512,4.5449,0.0082677,1.8378-0.57756,3.0992-1.402,3.7866-2.472,0.6874-1.0713,0.86575-2.126,0.53858-3.1677-0.21024-0.66732-0.58583-1.174-1.1244-1.5201-0.53976-0.34488-1.3524-0.5374-2.4378-0.57756-0.74055-0.02126-2.3917,0.047244-4.9559,0.20433-3.2953,0.20433-5.7331-0.051968-7.3158-0.7689-2.2228-1.0075-3.6874-2.6303-4.3902-4.865-0.45354-1.4386-0.4689-2.9126-0.047244-4.422,0.42165-1.5106,1.2968-2.8335,2.6256-3.972,1.3287-1.1386,3.0791-2.0504,5.25-2.7342,3.5457-1.115,6.4594-1.1776,8.7413-0.1878,2.2807,0.99094,3.8752,2.7685,4.7823,5.3362l-5.6256,2.0468c-0.70039-1.376-1.5532-2.2547-2.5559-2.6374-1.0028-0.38386-2.3079-0.32244-3.913,0.18307-1.6583,0.52205-2.8488,1.2697-3.5716,2.2465-0.46654,0.62716-0.58465,1.3063-0.35433,2.0386,0.21142,0.66732,0.67323,1.1504,1.3878,1.448,0.90945,0.37795,2.8547,0.45709,5.8358,0.23858,2.9823-0.2185,5.2476-0.18661,6.7984,0.095669,1.5496,0.2811,2.8913,0.91063,4.0252,1.8874,1.1339,0.97795,1.9819,2.3598,2.5441,4.1457,0.50906,1.6181,0.53622,3.2764,0.082677,4.9724-0.45472,1.6961-1.3961,3.1476-2.8252,4.3512-1.4268,1.2059-3.3685,2.1945-5.8216,2.9669-3.5716,1.1244-6.574,1.1622-9.0083,0.11339-2.4342-1.0476-4.3346-3.0933-5.7024-6.137zm36.732-2.511l-9.6862-22.619-8.0787,3.4594-1.9736-4.6063,21.637-9.2658,1.9713,4.6063-8.0587,3.4512,9.6874,22.62-5.498,2.3539zm16.772-7.6713l-13.59-26.315,5.3126-2.7437,13.591,26.315-5.3138,2.7437zm20.716-24.524l5.889-1.5201c0.9626,3.2114,0.98386,6.0307,0.06378,8.4579-0.9189,2.4272-2.7248,4.4846-5.4189,6.1713-3.3331,2.087-6.7854,2.6646-10.358,1.7315-3.5716-0.93307-6.5941-3.3744-9.0685-7.324-2.6173-4.1776-3.5693-8.0976-2.8606-11.76,0.70984-3.6638,2.8228-6.5953,6.3378-8.7968,3.072-1.924,6.1335-2.5772,9.1878-1.963,1.8142,0.35669,3.6354,1.363,5.4638,3.0142l-4.2661,4.3394c-1.1114-1.115-2.374-1.7551-3.7866-1.9181-1.415-0.16299-2.7945,0.17716-4.1409,1.0205-1.8614,1.1658-2.9528,2.778-3.2752,4.839-0.32126,2.0622,0.45354,4.5886,2.3268,7.578,1.9866,3.1736,3.9732,5.0764,5.9587,5.7083,1.9854,0.63189,3.8906,0.37559,5.7165-0.76772,1.3476-0.84331,2.237-1.9972,2.6716-3.4606,0.43465-1.4646,0.28701-3.248-0.44055-5.3492zm14.565,2.9965l-17.748-23.711,4.787-3.5823,17.748,23.709-4.787,3.5835zm29.424-24.593l-4.872,4.3098-6.3957-3.3248-8.8665,7.8449,2.6268,6.6579-4.7516,4.2047-10.985-29.826,4.7362-4.1906,28.508,14.324zm-16.011-1.4799l-10.339-5.5276,4.2862,10.882,6.0532-5.3539z"/>
</svg>
