<?xml version="1.0" encoding="UTF-8"?>
<!DOCTYPE svg PUBLIC "-//W3C//DTD SVG 1.1//EN" "http://www.w3.org/Graphics/SVG/1.1/DTD/svg11.dtd">
<!-- Creator: CorelDRAW -->
<svg xmlns="http://www.w3.org/2000/svg" xml:space="preserve" width="2000px" height="1000px" style="shape-rendering:geometricPrecision; text-rendering:geometricPrecision; image-rendering:optimizeQuality; fill-rule:evenodd; clip-rule:evenodd"
viewBox="0 0 2000 1000"
 xmlns:dc="http://purl.org/dc/elements/1.1/"
 xmlns:cc="http://web.resource.org/cc/"
 xmlns:rdf="http://www.w3.org/1999/02/22-rdf-syntax-ns#"
 xmlns:svg="http://www.w3.org/2000/svg"
 xmlns:sodipodi="http://sodipodi.sourceforge.net/DTD/sodipodi-0.dtd"
 xmlns:inkscape="http://www.inkscape.org/namespaces/inkscape"
 sodipodi:version="0.32"
 inkscape:version="0.46dev+devel"
 sodipodi:docname="Copy of moldova.svg"
 inkscape:output_extension="org.inkscape.output.svg.inkscape"
 version="1.0">
 <defs>
  <style type="text/css">
   <![CDATA[
    .fil3 {fill:black}
    .fil1 {fill:#0046AE}
    .fil5 {fill:#007A50}
    .fil4 {fill:#B07E5B}
    .fil0 {fill:#CC092F}
    .fil2 {fill:#FFD200}
   ]]>
  </style>
 </defs>
 <g id="Layer_x0020_1">
  <metadata id="CorelCorpID_0Corel-Layer"/>
  <sodipodi:namedview id="base" pagecolor="#ffffff" bordercolor="#666666" borderopacity="1.0" gridtolerance="10000" guidetolerance="10" objecttolerance="10" inkscape:pageopacity="0.0" inkscape:pageshadow="2" inkscape:zoom="1.3650794" inkscape:cx="150" inkscape:cy="189" inkscape:document-units="px" inkscape:current-layer="layer1" inkscape:window-width="1024" inkscape:window-height="712" inkscape:window-x="-4" inkscape:window-y="-4" showguides="true" inkscape:guide-bbox="true" width="300px" height="378px"/>
  <g id="_137230528">
   <rect id="_136053672" class="fil0" x="1333.33" y="0.00955293" width="666.667" height="1000"/>
   <rect id="_136414408" class="fil1" x="-0.00196422" y="0.00955293" width="666.667" height="1000"/>
   <rect id="_136439840" class="fil2" x="666.664" y="0.00955293" width="666.667" height="1000"/>
   <g id="_136045896">
    <metadata id="metadata7">
     <rdf:RDF>
      <cc:Work rdf:about="">
       <dc:format>
        
       
      image/svg+xml                  </dc:format>
       <dc:type rdf:resource="http://purl.org/dc/dcmitype/StillImage"/>
      </cc:Work>
     </rdf:RDF>
    </metadata>
    <path id="rect2244" class="fil3" d="M945.88 203.604c-3.581,0 -6.709,0.914 -8.533,2.334 2.899,0.845 5.006,3.518 5.006,6.769l0 8.248 -3.185 0 -5.061 0c-3.23,0 -5.906,-2.078 -6.77,-4.949 -1.42,1.824 -2.333,4.952 -2.333,8.532 0,3.582 0.913,6.71 2.333,8.533 0.845,-2.901 3.518,-5.007 6.77,-5.007l5.061 0 3.185 0 0 3.186 0 25.71 0 10.751c0,3.116 -1.948,5.702 -4.663,6.655 3.934,0.535 7.319,5.815 8.248,8.703 0.93,-2.882 4.315,-8.168 8.248,-8.703 -2.744,-0.937 -4.723,-3.518 -4.723,-6.655l0 -18.544 0 -17.918 0 -3.186 3.187 0 5.062 0c3.231,0 5.905,2.078 6.769,4.95 1.419,-1.824 2.332,-4.953 2.332,-8.533 0,-3.582 -0.912,-6.709 -2.332,-8.532 -0.845,2.899 -3.518,5.005 -6.769,5.005l-5.062 0 -3.187 0 0 -8.247c0,-3.231 2.077,-5.906 4.949,-6.77 -1.822,-1.418 -4.952,-2.332 -8.532,-2.332l0 0z"/>
    <path id="path2303" class="fil2" d="M945.88 205.312c-1.864,0 -3.507,0.348 -4.891,0.796 1.849,1.607 3.072,3.937 3.072,6.599l0 8.248c0,0.117 -0.034,0.23 -0.057,0.341l0 1.308 -1.309 0c-0.111,0.023 -0.224,0.056 -0.34,0.057l-0.74 0 -2.447 0 -5.061 0c-2.63,0 -4.932,-1.204 -6.541,-3.015 -0.461,1.399 -0.853,2.996 -0.853,4.892 0,1.864 0.348,3.507 0.796,4.892 1.607,-1.849 3.937,-3.071 6.598,-3.071l5.061 0 1.081 0 2.105 0 1.707 0c-0.011,0.171 -0.057,0.337 -0.057,0.511l0 0.853c0.023,0.112 0.056,0.224 0.057,0.341l0 3.186 0 25.71 0 10.751c0,2.573 -1.327,4.598 -3.072,6.199 1.248,0.77 2.323,1.739 3.242,2.845 0.819,0.984 1.144,1.946 1.707,2.957 0.563,-1.009 0.887,-1.973 1.706,-2.957 0.905,-1.087 1.965,-2.021 3.186,-2.787 -1.76,-1.597 -3.072,-3.672 -3.072,-6.257l0 -18.544 0 -17.918 0 -0.455 0 -2.73 0 -1.65 1.365 0c0.111,-0.022 0.224,-0.056 0.341,-0.056l3.186 0 5.062 0c2.629,0 4.931,1.204 6.541,3.014 0.46,-1.398 0.854,-2.994 0.854,-4.891 0,-1.863 -0.35,-3.507 -0.797,-4.891 -1.607,1.849 -3.937,3.07 -6.598,3.07l-5.062 0 -3.186 0c-0.117,0 -0.23,-0.034 -0.341,-0.057l-1.308 0 0 -1.308c-0.023,-0.11 -0.056,-0.223 -0.057,-0.341l0 -8.247c0,-2.63 1.204,-4.931 3.015,-6.542 -1.399,-0.46 -2.995,-0.853 -4.892,-0.853l-0.001 -0.001 0 0.001z"/>
    <polygon id="path2778" class="fil4" points="952.131,349.397 938.471,346.28 909.846,331.185 891.76,330.189 890.513,295.139 855.837,267.261 820.475,305.429 815.423,316.655 817.046,663.912 839.934,636.222 844.735,637.407 868.371,611.837 888.454,561.195 894.38,540.177 921.445,572.171 911.218,591.068 920.51,590.382 921.322,598.302 929.866,594.685 932.174,605.598 951.009,586.516 977.201,599.426 927.497,687.986 909.785,701.083 941.715,713.058 974.459,674.889 969.718,699.96 959.989,724.283 999.842,747.234 1043.13,721.662 1021.86,677.01 1028.78,673.829 1056.85,714.492 1087.41,699.336 1047.68,652.874 1021.55,596.992 1049.11,587.888 1067.89,605.911 1070.69,594.187 1080.61,598.989 1079.36,589.198 1089.34,591.379 1077.18,572.109 1108.05,546.227 1127.57,607.221 1156.32,640.088 1162.43,639.34 1183.33,665.16 1183.14,307.363 1144.53,266.761 1107.05,297.322 1108.61,330.251 1091.77,330.875 1066.7,343.722 1052.67,348.337 1046.06,349.647 1037.45,340.291 1025.91,317.216 1025.16,294.453 1032.27,279.61 1030.96,265.577 1037.33,265.702 1033.27,256.221 1038.89,253.978 1030.47,246.555 1033.4,243.125 1001.59,229.467 977.327,227.846 970.779,230.713 967.598,236.639 974.021,254.788 967.16,261.649 973.959,274.932 974.208,304.057 968.783,328.629 957.868,347.214 "/>
    <polygon id="path2516" class="fil0" points="915.368,591.655 891.377,628.346 879.735,627.992 867.741,633.638 863.859,646.691 865.623,652.689 878.677,666.801 889.261,660.803 897.729,651.63 899.845,643.517 930.186,604.002 928.774,594.125 922.071,598.358 919.601,590.244 "/>
    <polygon id="path2750" class="fil0" points="1068.84,602.591 1100.94,645.986 1104.12,654.451 1118.23,667.154 1122.46,666.095 1137.99,648.101 1134.46,635.754 1119.99,626.935 1109.06,627.992 1084.71,591.655 1080.48,589.89 1078.72,596.947 1071.66,594.829 "/>
    <path id="rect2205" class="fil3" d="M984.788 225.96c-3.973,0 -9.823,0.11 -13.254,2.39 -3.138,2.084 -2.884,4.793 -3.982,5.744 -2.588,2.241 -7.023,2.161 -9.158,2.161 -13.823,0 -14.334,14.79 -14.334,14.79 0,0 3.534,-5.347 9.783,-5.347 10.39,0 18.259,5.659 18.259,7.792 0,0.864 -1.071,1.024 -1.137,1.024 -6.786,0 -17.029,-3.907 -22.469,-4.095l0 2.161c0.073,0.048 0.122,0.112 0.229,0.171 -0.078,-0.014 -0.152,-0.042 -0.229,-0.057l0 0.398c12.145,4.225 24.459,10.208 24.459,36.574 0,16.604 -1.987,33.544 -10.295,46.871 -2.942,4.719 -7.131,8.757 -12.172,12.344 -2.243,-0.678 -12.792,-3.955 -20.193,-8.077 -13.029,-7.258 -19.785,-14.479 -35.267,-15.188 0,-3.454 0,-11.775 0,-11.775 0,-6.291 2.276,-11.958 2.276,-17.974 -6.527,-1.749 -24.643,-23.901 -41.353,-33.731 -24.59,15.927 -43.629,42.071 -43.629,54.095 0,0 0.739,258.343 0,348.343 0,5.186 -3.128,12.514 -3.128,12.514 8.977,-3.798 25.432,-26.311 28.896,-34.869 0,1.579 0,4.096 0,4.096 13.557,-6.182 23.484,-22.426 27.929,-30.83 0.079,1.215 0.285,4.265 0.285,4.265 12.111,-10.617 27.53,-73.376 27.53,-73.376l-0.796 -13.197c0,0 -10.663,51.241 -22.81,61.774 0,0 0,-204.924 0,-220.643l9.614 8.929 14.561 -13.595 0 -10.352 -12.912 12.058 0 -31.228c1.946,-2.944 3.236,-5.141 4.209,-6.882 2.09,3.644 8.845,14.81 16.78,21.672 1.305,-5.309 9.898,-10.353 9.898,-10.353 0,0 3.079,8.343 7.792,10.409 1.658,-2.921 11.548,-9.385 11.548,-9.385 0,0 -8.462,1.285 -11.889,4.494 -2.944,-0.659 -3.697,-12.287 -3.697,-12.287 0,0 -12.453,6.066 -14.618,10.409 -2.374,-0.642 -6.071,-9.986 -7.51,-13.822 2.173,-0.237 5.239,-0.512 9.272,-0.512 3.55,0 8.095,1.683 12.855,3.925 5.229,2.462 10.7,5.58 15.586,7.793 6.258,2.834 15.725,3.409 18.486,3.527 -3.162,2.222 -6.636,4.251 -10.408,6.143 0,0 14.901,-0.137 25.369,-5.347 3.735,-2.402 7.61,-4.796 10.921,-7.622 -1.436,3.993 -3.673,8.71 -7.168,12.741 15.373,-1.3 23.028,-10.08 25.199,-13.025 1.02,2.639 2.836,6.874 5.688,10.522 2.853,-3.648 4.725,-7.883 5.746,-10.522 2.172,2.945 9.825,11.725 25.198,13.025 -3.495,-4.031 -5.732,-8.748 -7.167,-12.741 3.311,2.826 7.187,5.22 10.921,7.622 10.467,5.21 25.37,5.347 25.37,5.347 -3.774,-1.892 -7.306,-3.926 -10.466,-6.143 2.657,-0.103 12.234,-0.67 18.543,-3.527 4.885,-2.213 10.356,-5.331 15.585,-7.793 4.761,-2.242 9.306,-3.925 12.856,-3.925 4.033,0 7.099,0.275 9.271,0.512 -1.438,3.836 -5.134,13.18 -7.509,13.822 -2.166,-4.343 -14.618,-10.409 -14.618,-10.409 0,0 -0.754,11.628 -3.697,12.287 -3.427,-3.209 -11.889,-4.494 -11.889,-4.494 0,0 9.89,6.464 11.547,9.385 4.714,-2.066 7.736,-10.409 7.736,-10.409 0,0 8.649,5.045 9.955,10.353 7.935,-6.863 14.688,-18.026 16.779,-21.672 1.01,1.798 2.359,4.082 4.209,6.882l0 31.228 -12.911 -12.058 0 10.352 14.561 13.595 9.614 -8.929c0,15.719 0,220.643 0,220.643 -12.148,-10.533 -22.81,-61.774 -22.81,-61.774l-0.797 13.197c0,0 15.42,62.759 27.531,73.376 0,0 0.206,-3.05 0.285,-4.265 4.445,8.404 14.373,24.648 27.928,30.83 0,0 0,-2.518 0,-4.096 3.464,8.558 19.919,31.071 28.895,34.869 0,0 -3.128,-7.328 -3.128,-12.514 -0.738,-90 0,-348.343 0,-348.343 0,-12.025 -19.038,-38.168 -43.628,-54.095 -16.708,9.83 -34.826,31.982 -41.352,33.731 0,6.016 2.274,11.683 2.274,17.974 0,0 0,8.233 0,11.718 -15.449,0.725 -22.25,7.993 -35.266,15.245 -7.449,4.15 -18.111,7.438 -20.249,8.077 -5.039,-3.58 -9.175,-7.624 -12.115,-12.344 -7.081,-11.359 -10.068,-25.304 -10.068,-39.475 0,-5.991 6.711,-12.734 6.711,-17.577 0,-7.323 -0.682,-11.717 -0.682,-11.717 2.381,0.325 6.541,4.55 6.541,4.55 0,0 -0.143,-12.154 -3.982,-14.277 0,0 1.553,-1.597 7.167,-1.763 -1.578,-3.997 -9.385,-8.874 -9.385,-8.874 0.391,-0.699 1.111,-1.302 2.047,-1.82 1.962,-1.084 4.718,-1.8 6.826,-2.219 -2.247,-0.465 -4.836,-1.178 -7.679,-2.105 -6.491,-2.115 -14.132,-5.219 -21.273,-8.645 -13.036,-6.254 -22.966,-6.656 -28.441,-6.656l0 0.001 0 0zm0.284 3.584c1.209,0.011 2.33,0.057 3.299,0.057 12.731,0 21.685,5.804 33.732,11.148 3.157,1.401 6.056,2.535 8.644,3.413 -1.622,1.436 -2.883,2.88 -3.242,4.096 0,0 5.399,1 7.849,5.518 0,0 -5.134,0.582 -5.973,3.583 2.875,0.217 5.733,3.841 5.746,7.338 0,0 -7.281,-2.276 -7.281,-2.276 0,0 1.763,8.176 1.763,17.065 0,4.54 -6.54,9.883 -6.54,17.576 0,24.148 6.083,33.431 10.41,40.897 1.692,2.921 3.067,6.282 5.915,8.817 -12.465,-6.637 -21.729,-14.933 -21.729,-22.639l0 -29.18 -3.242 0c0,0 0,29.18 0,29.18 0,5.588 1.365,8.191 1.365,8.191 1.956,6.182 5.911,15.724 8.362,19.567 -11.468,-6.198 -17.293,-13.959 -17.293,-16.837l0 -40.102 -3.242 0 0 40.67 0.626 2.787c-1.391,2.089 -3.198,4.563 -4.438,5.404 -1.237,-0.84 -2.988,-3.318 -4.38,-5.404l0.626 -2.787 0 -40.67 -3.242 0 0 40.102c0,2.878 -5.826,10.639 -17.292,16.837 2.45,-3.843 6.405,-13.385 8.361,-19.567 0,0 1.365,-2.603 1.365,-8.191 0,0 0,-29.18 0,-29.18l-3.242 0 0 29.18c0,7.697 -9.23,16.006 -21.672,22.639 2.818,-2.537 4.175,-5.912 5.858,-8.817 4.731,-8.164 10.58,-18.537 10.58,-48.065 0,-11.082 -1.639,-18.616 -4.493,-23.89 -0.867,-1.74 -2.037,-6.371 4.607,-6.371 3.442,0 11.32,6.087 11.32,6.087 0,0 -0.324,-4.857 -4.323,-7.622 -0.664,-0.459 -1.763,-1.903 -1.763,-3.243 0,-1.005 1.723,-3.484 3.07,-4.096 0.926,-0.419 -13.537,-2.94 -13.537,-9.499 0,-1.365 0.859,-2.275 3.867,-2.275 3.938,0 10.347,4.721 16.042,4.721 4.21,0 5.871,-1.024 10.182,-1.024 5.269,0 16.261,9.977 20.021,9.613 -4.203,-2.639 -10.994,-12.628 -21.272,-12.628 -3.568,0 -6.798,0.797 -10.127,0.797 -4.267,0 -8.469,-3.925 -13.082,-3.925 -3.09,0 -6.543,0.172 -7.054,-0.626 -0.893,-1.395 -0.089,-2.204 0.74,-3.356 1.565,-2.175 5.963,-2.805 10.297,-2.957 1.3,-0.045 2.599,-0.068 3.81,-0.057l0 0.001 0.002 0zm-129.12 43.798c0,0 0,0.056 0,0.056 0,0 22.849,20.936 30.545,23.606 0,0 0.283,7.053 0.283,7.053l0 20.763c-5.577,-1.92 -12.584,-11.081 -15.982,-15.927 0,-1.361 0,-2.844 0,-2.844 0,-2.676 1.574,-4.63 2.73,-5.689l-3.356 -1.194c-1.28,1.459 -2.673,3.626 -2.673,6.427 0,0 0,1.092 0,1.651l-1.081 1.138 -0.568 0.626 -8.362 8.986 -9.84 -14.903c0,-1.819 0,-3.64 0,-3.64 0,-2.454 1.886,-5.189 3.47,-7.053l-3.3 -1.195c-1.666,2.158 -3.413,5.066 -3.413,7.793 0,0 0,1.55 0,2.957 -2.315,2.395 -11.319,11.661 -11.319,11.661 0,0 -4.518,-9.707 -5.745,-12.343 6.894,-9.549 18.073,-20.244 28.611,-27.929l0 0 0 0zm287.762 0c10.516,7.668 21.701,18.398 28.613,27.929 -1.227,2.635 -5.745,12.343 -5.745,12.343 0,0 -9.004,-9.266 -11.319,-11.661 0,-1.409 0,-2.957 0,-2.957 0,-2.727 -1.747,-5.635 -3.413,-7.793l-3.299 1.195c1.583,1.863 3.47,4.599 3.47,7.053 0,0 0,1.822 0,3.64l-9.841 14.903 -8.361 -8.986 -0.569 -0.626 -1.081 -1.138c0,-0.559 0,-1.651 0,-1.651 0,-2.801 -1.394,-4.968 -2.673,-6.427l-3.357 1.194c1.157,1.059 2.731,3.012 2.731,5.689 0,0 0,1.483 0,2.844 -3.4,4.846 -10.405,14.007 -15.983,15.927l0 -20.763c0,0 0.284,-7.053 0.284,-7.053 7.695,-2.669 30.545,-23.606 30.545,-23.606 0,0 0,-0.056 0,-0.056l-0.001 0 -0.001 0zm-320.356 34.3l5.234 9.499 0 17.122 -7.964 7.394c0,-3.473 0,-25.426 0,-25.426 0,-2.434 1.02,-5.367 2.73,-8.589zm352.95 0c1.713,3.222 2.73,6.155 2.73,8.589 0,0 0,21.913 0,25.426l-7.963 -7.394 0 -17.122 5.233 -9.499zm-332.073 2.161l9.157 13.936 0 10.58 -9.157 8.59 0 -33.105 0 0 0 -0.001zm311.198 0l0 33.105 -9.159 -8.589 0 -10.58 9.159 -13.936 0 0.001 0 -0.001zm-314.442 2.503l0 30.545 -9.158 -8.532 0 -12.4 9.158 -9.613 0 0zm317.684 0l9.158 9.612 0 12.4 -9.158 8.532 0 -30.545 0 0.001zm-289.584 2.218c1.379,2.294 7.704,12.527 13.708,15.472 -2.127,3.005 -7.697,10.356 -13.708,13.595l0 -29.067zm261.484 0l0 29.067c-6.011,-3.238 -11.58,-10.59 -13.708,-13.595 6.005,-2.944 12.33,-13.178 13.708,-15.472zm-264.724 1.479l0 26.848 -9.159 -8.532 0 -9.499 9.159 -8.817zm267.968 0l9.158 8.817 0 9.499 -9.158 8.532 0 -26.848zm-305.226 28.611l0 26.792 -7.964 -7.452c0,-2.832 0,-9.675 0,-11.889l7.964 -7.451zm342.483 0l7.963 7.451c0,2.239 0,9.024 0,11.889l-7.963 7.452 0 -26.792zm-339.242 0.058l5.234 4.891 3.925 3.64 0 9.613 -3.925 3.64 -5.234 4.891 0 -26.677 0 0.002zm21.558 0l0 26.677 -5.233 -4.892 -3.924 -3.697 0 -9.499 3.924 -3.698 5.233 -4.891 0 0zm3.3 0l9.159 8.589 0 9.499 -3.983 3.753 -5.176 4.836 0 -26.677 0 0zm21.558 0l0 26.734 -5.233 -4.892 -3.926 -3.698 0 -8.93c3.159,-1.927 6.335,-5.471 9.159,-9.215l0 0.001 0 0zm243.168 0c2.824,3.742 5.999,7.288 9.157,9.214l0 8.93 -3.924 3.697 -5.233 4.892 0 -26.734 0 0 0 0.001zm21.558 0l0 26.677 -5.176 -4.836 -3.981 -3.753 0 -9.499 9.158 -8.589 -0.001 0zm3.3 0l5.233 4.891 3.925 3.698 0 9.499 -3.925 3.697 -5.233 4.891 0 -26.677 0 0.001 0 0zm21.558 0l0 26.677 -5.234 -4.892 -3.925 -3.64 0 -9.613 3.925 -3.64 5.234 -4.892 0 0 0 0zm-322.462 29.521l9.669 9.044 9.67 -8.987 0 220.701c0,0 0.675,10.951 1.138,18.088 -4.301,4.346 -20.477,20.705 -20.477,20.705l0 -259.551 0 0zm308.923 0l0 259.55c0,0 -16.176,-16.359 -20.477,-20.704 0.463,-7.138 1.137,-18.089 1.137,-18.089l0 -220.701 9.67 8.988 9.67 -9.045 0 0.001 0 0zm-314.44 0.057l0 251.246c0,7.095 -12.956,23.637 -19.226,27.417 0,-6.347 0,-200.693 0,-278.606l9.556 8.93 9.67 -8.987zm319.958 0l9.67 8.987 9.556 -8.93c0,78.811 0,272.258 0,278.606 -6.269,-3.78 -19.226,-20.323 -19.226,-27.417l0 -251.246zm-240.269 197.38c0,0 -9.29,18.861 -12.91,22.239 0,0 2.426,0.308 5.176,0.284 -1.691,2.431 -14.608,21.028 -18.657,28.043 -3.789,6.562 -6.462,3.641 -12.287,3.641 -4.83,0 -15.778,7.694 -17.576,10.807 -1.89,3.272 -3.299,7.248 -3.299,10.523 0,3.601 3.811,8.533 3.811,8.533 0.41,-1.723 1.137,-2.333 1.137,-2.333 0,0 10.015,12.476 11.49,14.106 1.149,1.27 6.273,2.096 8.078,0.456 4.518,-4.107 8.891,-6.98 12.912,-12.912 2.071,-3.056 2.228,-6.56 4.607,-9.841 7.958,-10.978 23.795,-32 27.417,-36.802 0.243,1.337 0.45,2.451 0.681,3.811 4.103,-8.285 23.834,-24.118 23.834,-24.118l-5.461 -3.584c0,0 -11.894,13.865 -15.756,16.439 0,0 -1.651,-6.895 -2.617,-9.329 0,0 -4.558,3.447 -7.051,3.528 0,0 -0.745,-4.679 -1.309,-7.737 -3.138,2.092 -8.361,1.65 -8.361,1.65 4.586,-2.172 10.01,-15.472 10.01,-15.472l-3.867 -1.934 -0.002 0.002zm160.577 0l-3.868 1.934c0,0 5.427,13.3 10.01,15.471 0,0 -5.222,0.443 -8.361,-1.649 -0.562,3.057 -1.308,7.736 -1.308,7.736 -2.494,-0.081 -7.053,-3.527 -7.053,-3.527 -0.966,2.432 -2.617,9.329 -2.617,9.329 -3.861,-2.574 -15.756,-16.44 -15.756,-16.44l-5.46 3.583c0,0 19.73,15.833 23.833,24.12 0.232,-1.361 0.44,-2.475 0.682,-3.811 3.622,4.802 19.458,25.824 27.417,36.802 2.379,3.281 2.536,6.785 4.608,9.84 4.02,5.932 8.394,8.805 12.912,12.912 1.804,1.641 6.928,0.815 8.077,-0.455 1.475,-1.631 11.49,-14.106 11.49,-14.106 0,0 0.727,0.609 1.138,2.332 0,0 3.811,-4.932 3.811,-8.533 0,-3.275 -1.411,-7.25 -3.3,-10.522 -1.797,-3.114 -12.745,-10.808 -17.576,-10.808 -5.825,0 -8.498,2.922 -12.286,-3.64 -4.05,-7.015 -16.967,-25.612 -18.657,-28.043 2.75,0.024 5.175,-0.284 5.175,-0.284 -3.62,-3.379 -12.912,-22.241 -12.912,-22.241l0 0 0.001 0zm-161.885 21.273c0,0 -0.076,6.393 1.935,8.647 0,0 7.053,-4.836 7.053,-4.836 0,0 0.47,2.334 1.081,5.518 -3.021,4.129 -20.368,27.805 -28.953,39.361 -2.134,2.872 -3.926,10.182 -3.926,10.182 0,0 -3.127,-1.48 -3.127,-4.152 0,-2.625 0.342,-5.745 0.342,-5.745 0,0 -2.335,2.673 -6.372,2.673 0,-3.225 6.239,-6.725 6.485,-11.318 -4.757,3.527 -8.888,1.717 -14.391,3.413 -5.993,1.846 -7.662,4.364 -9.499,4.266 -1.083,-0.058 -2.063,-1.925 -1.649,-3.072 0.715,-1.985 8.126,-7.48 13.308,-8.475 1.241,-0.238 11.003,2.124 12.97,-0.91 8.103,-12.502 21.256,-32.798 22.525,-34.754 0.836,-0.199 1.604,-0.412 2.217,-0.797l0 -0.001 0.001 0zm163.193 0c0.615,0.386 1.383,0.598 2.219,0.797 1.27,1.956 14.422,22.252 22.525,34.754 1.966,3.035 11.728,0.672 12.968,0.91 5.184,0.996 12.595,6.491 13.311,8.475 0.413,1.147 -0.566,3.014 -1.65,3.072 -1.837,0.097 -3.506,-2.419 -9.499,-4.266 -5.503,-1.696 -9.633,0.114 -14.391,-3.413 0.246,4.593 6.485,8.094 6.485,11.319 -4.036,0 -6.371,-2.673 -6.371,-2.673 0,0 0.341,3.12 0.341,5.744 0,2.672 -3.128,4.153 -3.128,4.153 0,0 -1.792,-7.311 -3.925,-10.183 -8.585,-11.556 -25.932,-35.232 -28.952,-39.362 0.611,-3.183 1.081,-5.518 1.081,-5.518 0,0 7.052,4.836 7.052,4.836 2.011,-2.253 1.934,-8.647 1.934,-8.647l0 0.001 0 0.001zm-106.823 4.664c0,0 -38.541,88.595 -72.751,102.216 0,0 14.883,6.323 33.162,15.814 2.666,1.385 5.413,2.871 8.191,4.38 2.3,-2.771 4.723,-5.85 7.11,-9.045 10.929,-14.622 21.616,-31.569 21.616,-31.569 0.744,4.4 -5.026,17.993 -14.789,34.756 -1.92,3.294 -3.922,6.738 -6.144,10.237 2.477,1.414 4.935,2.843 7.395,4.324 18.105,10.895 35.109,23.419 41.409,34.925 6.301,-11.506 23.304,-24.03 41.411,-34.925 2.46,-1.481 4.917,-2.91 7.394,-4.324 -2.221,-3.499 -4.223,-6.942 -6.143,-10.237 -9.763,-16.763 -15.533,-30.356 -14.789,-34.756 0,0 10.687,16.947 21.616,31.569 2.386,3.194 4.809,6.274 7.11,9.045 2.776,-1.509 5.524,-2.995 8.191,-4.38 18.278,-9.491 33.16,-15.814 33.16,-15.814 -34.208,-13.62 -72.751,-102.216 -72.751,-102.216l-5.688 1.65c0,0 30.742,76.554 60.806,99.713 -6.837,2.058 -14.839,5.012 -23.094,8.533 -10.032,-11.751 -20.409,-27.602 -28.838,-41.695 -9.102,-15.217 -16.553,-41.921 -16.553,-41.921 -4.22,10.249 4.773,61.736 22.924,94.31 -15.01,7.813 -28.366,16.279 -34.755,23.207 -6.389,-6.928 -19.744,-15.394 -34.754,-23.207 18.15,-32.573 27.143,-84.061 22.923,-94.31 0,0 -7.45,26.704 -16.553,41.921 -8.429,14.093 -18.806,29.944 -28.839,41.695 -8.253,-3.521 -16.256,-6.475 -23.094,-8.533 30.065,-23.159 60.807,-99.713 60.807,-99.713l-5.688 -1.65 -0.002 0zm-100.679 42.548c0.264,0.029 0.542,0.17 0.739,0.398 0.393,0.454 0.359,1.118 -0.058,1.479l-3.185 2.787c-0.416,0.36 -1.085,0.283 -1.478,-0.171 -0.394,-0.453 -0.36,-1.118 0.057,-1.48l3.185 -2.787c0.207,-0.18 0.475,-0.258 0.74,-0.227l0 0.001zm251.814 0c0.264,-0.031 0.532,0.046 0.74,0.227l3.185 2.787c0.416,0.362 0.451,1.026 0.057,1.48 -0.394,0.454 -1.063,0.531 -1.478,0.17l-3.187 -2.787c-0.416,-0.361 -0.451,-1.025 -0.057,-1.479 0.197,-0.227 0.475,-0.368 0.74,-0.398l-0.001 0 0.001 0zm-248.459 2.787c0.792,-0.064 1.623,0.282 2.219,0.967 0.953,1.098 0.891,2.653 -0.114,3.527l-7.736 6.768c-1.006,0.875 -2.63,0.7 -3.584,-0.397 -0.953,-1.098 -0.892,-2.71 0.114,-3.584l7.736 -6.712c0.377,-0.328 0.89,-0.53 1.365,-0.569l0 0zm244.478 0c0.199,-0.033 0.427,-0.016 0.625,0 0.476,0.039 0.987,0.241 1.366,0.568l7.736 6.713c1.006,0.873 1.067,2.486 0.114,3.584 -0.954,1.096 -2.578,1.272 -3.584,0.396l-7.736 -6.768c-1.006,-0.873 -1.068,-2.427 -0.113,-3.527 0.446,-0.514 0.996,-0.864 1.592,-0.967l0 0 0 0.001zm-240.097 5.233c0.791,-0.064 1.678,0.28 2.274,0.967 0.953,1.098 0.892,2.652 -0.114,3.526l-7.792 6.769c-1.006,0.874 -2.573,0.7 -3.527,-0.398 -0.954,-1.097 -0.892,-2.709 0.115,-3.583l7.735 -6.712c0.377,-0.328 0.833,-0.53 1.308,-0.569l0.001 0 0 0zm235.717 0c0.204,-0.034 0.427,-0.016 0.625,0 0.475,0.039 0.931,0.241 1.308,0.569l7.736 6.712c1.007,0.873 1.069,2.486 0.113,3.583 -0.952,1.098 -2.52,1.272 -3.527,0.398l-7.791 -6.77c-1.007,-0.873 -1.069,-2.427 -0.115,-3.525 0.448,-0.514 1.039,-0.864 1.651,-0.968l0 0.001zm-230.769 5.119c0.792,-0.063 1.623,0.224 2.219,0.91 0.953,1.098 0.892,2.71 -0.114,3.584l-7.736 6.713c-1.007,0.874 -2.573,0.699 -3.527,-0.399 -0.953,-1.098 -0.949,-2.653 0.057,-3.527l7.793 -6.768c0.376,-0.328 0.833,-0.474 1.308,-0.513l0 0zm225.82 0c0.198,-0.029 0.427,-0.015 0.625,0 0.476,0.039 0.931,0.185 1.307,0.513l7.795 6.768c1.006,0.873 1.009,2.429 0.056,3.527 -0.953,1.098 -2.521,1.273 -3.526,0.399l-7.737 -6.713c-1.007,-0.874 -1.067,-2.486 -0.113,-3.584 0.447,-0.514 0.997,-0.824 1.593,-0.91z" sodipodi:nodetypes="cssscsssccsccsscscccccccccccccccccccccccccccccssscccccccccccscsssccccccccccccccccccccccsccccscscsssscccsscssccssccccccsssccccsscccccccccccccscccccsscscssssssscssssssccccccccccccccccscccccccccccsccsccccccccccccccccccccccccccccccccccccccccccccccccccccccccccccccccccccccccccccccccccccccccccccccccccccccccccccccccccccccccccccccccccccccccccccccccccccccccccccssssccssssccccsssccccccccsssccccssssccssssccccsccscscccsssssccccssssscccscsccsccsscscscscscscscssccccsscccsscccccsccsccccccsccsccsccsccccsccsccsccsccsccccsccsccsccsccsccccsccsccsc"/>
    <g id="g2704">
     <rect id="rect2290" class="fil3" transform="matrix(0.172565 0.0940819 -0.041955 0.192016 894.348 657.389)" width="104.32" height="104.32"/>
     <path id="rect2273" class="fil3" d="M810.559 465.26l-6.484 2.959 73.263 160.463 7.793 0 -74.572 -163.422 0 -0.001 0 0.001zm86.403 189.245l-5.289 5.461 3.299 7.281 6.427 -2.958 -4.436 -9.784 0 0 -0.001 0z"/>
     <rect id="rect2288" class="fil2" transform="matrix(0.172565 0.0940819 -0.041955 0.192016 896.935 663.057)" width="64.709" height="64.709"/>
     <path id="path2280" class="fil3" d="M833.318 591.774c0,0 6.171,12.747 10.861,14.496 -2.424,-0.662 -10.301,2.228 -10.301,2.228 0,0 13.887,12.406 25.666,13.22 9.989,0.688 14.839,-4.298 14.839,-4.298l-2.001 -10.583c0,0 -6.111,-7.38 -15.89,-10.785 -9.883,-3.443 -23.174,-4.276 -23.174,-4.276l0 -0.002 0 0z" sodipodi:nodetypes="cccsccsc"/>
     <path id="path2282" class="fil3" d="M879.842 568.945c0,0 -8.521,7.294 -10.853,15.742 -2.333,8.45 1.521,18.053 1.521,18.053l7.159 13.356c0,0 9.924,-5.281 14.145,-13.178 4.221,-7.897 2.673,-18.553 2.673,-18.553 0,0 -7.861,2.927 -8.861,4.223 1.66,-8.761 -5.784,-19.643 -5.784,-19.643l-0.001 0 0.001 0z" sodipodi:nodetypes="csccsccc"/>
     <path id="path2284" class="fil3" d="M852.46 565.527c0,0 -9.691,3.275 -19.102,2.708 -8.964,-0.541 -16.418,-8.069 -16.418,-8.069 0,0 7.431,-5.029 11.098,-4.359 -4.034,-1.475 -9.885,-11.581 -9.885,-11.581 0,0 8.313,-2.513 15.685,0.267 7.372,2.781 13.799,10.856 13.799,10.856l4.824 10.178 -0.001 0z" sodipodi:nodetypes="cscccscc"/>
     <path id="path2286" class="fil3" d="M855.792 518.199c0,0 4.847,10.036 3.697,13.524 1.504,-2.323 7.193,-5.938 7.193,-5.938 0,0 3.44,16.249 0.15,26.284 -3.289,10.035 -13.305,13.856 -13.305,13.856l-11.048 -21.485c0,0 -1.644,-7.96 1.801,-14.264 3.445,-6.303 11.511,-11.977 11.511,-11.977l0.001 0z" sodipodi:nodetypes="cccsccsc"/>
     <path id="path2293" class="fil3" d="M792.728 491.634c0,0 10.475,-1.1 20.057,2.87 8.011,3.326 10.467,9.37 10.467,9.37l3.945 10.578c0,0 -11.4,4.276 -20.409,1.006 -9.009,-3.271 -15.628,-14.089 -15.628,-14.089 0,0 6.295,-2.387 8.692,-1.492 -3.491,-1.545 -7.123,-8.244 -7.123,-8.244l0 0.001 -0.001 0z" sodipodi:nodetypes="csccsccc"/>
     <path id="path2295" class="fil3" d="M825.678 471.994c0,0 4.597,5.904 4.735,12.694 1.226,-3.61 6.964,-7.6 6.964,-7.6 0,0 5.902,14.284 4.607,24.424 -1.295,10.142 -9.787,16.141 -9.787,16.141l-10.591 -20.102c0,0 -3.452,-8.239 -2.434,-14.629 1.017,-6.39 6.506,-10.929 6.506,-10.929l0 0.001z" sodipodi:nodetypes="cccsccsc"/>
     <path id="path2297" class="fil3" d="M789.401 433.551c0,0 -1.899,10.948 1.333,17.255 2.887,5.628 4.725,6.862 4.725,6.862 -5.505,-3.632 -13.827,-3.945 -13.827,-3.945 0,0 2.962,11.912 10.041,17.346 7.079,5.435 17.995,4.165 17.995,4.165 0,0 7.178,-9.555 6.678,-19.85 -0.499,-10.295 -8.676,-21.33 -8.676,-21.33 0,0 -3.224,6.689 -3.509,11.682 -2.086,-5.148 -14.76,-12.185 -14.76,-12.185l0 0 0 0z" sodipodi:nodetypes="csccscsccc"/>
     <path id="path2299" class="fil5" d="M792.621 440.216c0,0 -0.283,8.001 2.364,12.539 2.647,4.54 8.559,6.35 8.559,6.35 0,0 0.283,-7.999 -2.364,-12.537 -2.648,-4.54 -8.559,-6.352 -8.559,-6.352z" sodipodi:nodetypes="cscsc"/>
     <path id="path2301" class="fil5" d="M787.086 458.308c0,0 6.951,0.408 10.964,3.484 4.012,3.076 5.566,9.484 5.566,9.484 0,0 -4.606,0.467 -8.618,-2.608 -4.013,-3.077 -7.912,-10.36 -7.912,-10.36l0 0z" sodipodi:nodetypes="cscsc"/>
     <path id="path2304" class="fil5" d="M808.896 442.161c0,0 -2.311,5.3 -2.046,11.014 0.266,5.715 3.601,12.152 3.601,12.152 0,0 3.015,-6.86 2.749,-12.575 -0.265,-5.715 -3.496,-8.973 -4.304,-10.591z" sodipodi:nodetypes="cscsc"/>
     <path id="path2306" class="fil5" d="M797.194 493.664c0,0 3.412,4.764 8.666,7.362 5.254,2.598 13.08,2.694 13.08,2.694 0,0 -3.906,-5.069 -9.16,-7.667 -5.254,-2.598 -12.586,-2.391 -12.586,-2.391l0 0.002 0 0z" sodipodi:nodetypes="cscsc"/>
     <path id="path2308" class="fil5" d="M798.888 504.739c0,0 2.508,4.912 7.094,7.018 4.588,2.107 13.971,1.934 13.971,1.934 0,0 -3.6,-4.591 -8.186,-6.697 -4.587,-2.108 -12.879,-2.255 -12.879,-2.255l0 0z" sodipodi:nodetypes="cscsc"/>
     <path id="path2310" class="fil5" d="M825.302 478.533c0,0 -2.772,4.581 -2.501,9.629 0.272,5.05 3.586,10.567 3.586,10.567 0,0 2.33,-6.325 2.058,-11.374 -0.271,-5.05 -3.143,-8.822 -3.143,-8.822l0 0z" sodipodi:nodetypes="cscsc"/>
     <path id="path2312" class="fil5" d="M835.512 485.011c0,0 -4.743,6.366 -5.424,12.912 -0.682,6.545 2.697,13.27 2.697,13.27 0,0 5.73,-5.754 6.412,-12.299 0.681,-6.546 -3.685,-13.881 -3.685,-13.881l0 -0.002z" sodipodi:nodetypes="cscsc"/>
     <path id="path2320" class="fil5" d="M822.429 545.457c0,0 0.57,2.354 2.552,4.853 1.981,2.501 5.373,5.147 5.373,5.147 0,0 3.277,-1.054 7.35,-0.172 4.072,0.883 9.489,4.511 9.489,4.511 0,0 -5.83,-8.701 -11.883,-12.084 -6.054,-3.381 -12.88,-2.255 -12.88,-2.255l-0.001 0z" sodipodi:nodetypes="cscscsc"/>
     <path id="path2322" class="fil5" d="M821.829 560.411c0,0 7.548,-3.224 13.763,-2.392 6.216,0.833 11.82,5.746 11.82,5.746 0,0 -8.401,2.907 -14.616,2.075 -6.217,-0.832 -10.969,-5.428 -10.969,-5.428l0.002 -0.002 0 0.001z" sodipodi:nodetypes="cscsc"/>
     <path id="path2324" class="fil5" d="M853.739 525.327c0,0 -6.675,7.071 -7.235,13.207 -0.559,6.136 5.413,11.855 5.413,11.855 0,0 -0.293,-3.935 0.734,-6.527 1.028,-2.59 3.214,-5.357 3.214,-5.357 0,0 0.932,-3.16 0.571,-5.693 -0.503,-3.54 -2.697,-7.485 -2.697,-7.485z" sodipodi:nodetypes="cscscsc"/>
     <path id="path2326" class="fil5" d="M863.313 533.514c0,0 -6.291,6.365 -7.954,13.181 -1.663,6.817 1.3,14.085 1.3,14.085 0,0 5.722,-4.513 7.385,-11.329 1.663,-6.817 -0.732,-15.937 -0.732,-15.937l0.001 0z" sodipodi:nodetypes="cscsc"/>
     <path id="path2328" class="fil5" d="M879.065 574.605c0,0 2.85,5.95 3.573,10.926 0.724,4.975 0.052,6.697 0.052,6.697 0,0 -2.946,2.897 -4.267,4.6 -1.697,2.19 -1.947,6.195 -1.947,6.195 0,0 -5.916,-8.795 -5.005,-15.225 0.912,-6.429 7.594,-13.194 7.594,-13.194l0 0 0 0.001z" sodipodi:nodetypes="cscscsc"/>
     <path id="path2330" class="fil5" d="M891.538 588.366c0,0 -7.575,5.004 -10.582,10.136 -3.008,5.131 -1.448,10.388 -1.448,10.388 0,0 5.398,-0.475 8.406,-5.607 3.007,-5.131 3.623,-14.918 3.623,-14.918l0.001 0 0 0.001z" sodipodi:nodetypes="cscsc"/>
     <path id="path2333" class="fil5" d="M841.761 609.498c0,0 10.918,-0.298 17.591,1.343 6.674,1.64 9.103,5.217 9.103,5.217 0,0 -7.504,3.513 -14.177,1.873 -6.674,-1.64 -12.517,-8.434 -12.517,-8.434l0 0 0 0.001z" sodipodi:nodetypes="cscsc"/>
     <path id="path2335" class="fil5" d="M839.915 596.546c0,0 4.926,7.637 11.294,10.407 8.776,3.816 18.937,1.966 18.937,1.966 0,0 -5.52,-6.765 -13.116,-9.752 -7.598,-2.986 -17.115,-2.621 -17.115,-2.621l0.001 0 -0.001 0z" sodipodi:nodetypes="cscsc"/>
     <path id="path2350" class="fil3" d="M874.955 616.972l0.294 3.93c6.529,0.06 7.501,-0.589 9.174,1.468 1.115,1.371 3.766,2.567 6.431,1.35 2.666,-1.217 3.861,-4.419 2.644,-7.085 -1.217,-2.665 -3.695,-3.244 -6.083,-2.773 -1.465,0.289 -2.429,1.458 -3.673,2.101 -2.364,1.224 -8.788,1.009 -8.788,1.009l0 0 0.001 0z" sodipodi:nodetypes="ccsssssc"/>
     <path id="path2348" class="fil2" d="M891.292 617.659c0.002,0.001 0.002,0.001 0.002,0.001 0.662,1.451 0.019,3.174 -1.431,3.837 -1.451,0.663 -3.175,0.02 -3.838,-1.432 -0.004,-0.009 -0.013,-0.031 -0.018,-0.04 0.016,0.035 0.016,0.035 0.016,0.035 -0.663,-1.452 -0.019,-3.176 1.431,-3.838 1.451,-0.663 3.175,-0.019 3.837,1.432 0.005,0.009 0.014,0.031 0.019,0.04l-0.018 -0.037 0 0.002 0 0z" sodipodi:type="arc" sodipodi:cx="165.28621" sodipodi:cy="669.64063" sodipodi:rx="3.0935922" sodipodi:ry="3.0935922"/>
     <path id="path2357" class="fil3" d="M874.392 613.965l3.177 2.329c-3.407,5.571 -4.471,6.051 -3.613,8.561 0.573,1.671 0.185,4.553 -2.26,6.17 -2.444,1.617 -5.793,0.934 -7.41,-1.51 -1.617,-2.444 -0.795,-4.851 0.869,-6.627 1.022,-1.091 2.523,-1.289 3.727,-2.003 2.29,-1.359 5.509,-6.92 5.509,-6.92l0 0 0.001 0z" sodipodi:nodetypes="ccsssssc"/>
     <path id="path2359" class="fil2" d="M866.323 628.186c0.001,0.003 0.001,0.003 0.001,0.003 0.88,1.33 2.684,1.697 4.014,0.817 1.33,-0.88 1.697,-2.683 0.817,-4.013 -0.007,-0.01 -0.018,-0.028 -0.024,-0.038 0.021,0.032 0.021,0.032 0.021,0.032 -0.88,-1.33 -2.683,-1.697 -4.013,-0.817 -1.33,0.879 -1.697,2.681 -0.818,4.011 0.007,0.01 0.019,0.03 0.026,0.039l-0.023 -0.035 -0.001 0 0 0.001z" sodipodi:ry="3.0935922" sodipodi:rx="3.0935922" sodipodi:cy="669.64063" sodipodi:cx="165.28621" sodipodi:type="arc"/>
     <path id="path2361" class="fil3" d="M852.278 567.297l0.294 3.93c6.529,0.06 7.5,-0.588 9.174,1.468 1.113,1.37 3.765,2.567 6.43,1.35 2.667,-1.217 3.862,-4.418 2.643,-7.084 -1.217,-2.666 -3.694,-3.244 -6.082,-2.773 -1.466,0.289 -2.429,1.458 -3.672,2.101 -2.365,1.223 -8.788,1.008 -8.788,1.008l0.001 0z" sodipodi:nodetypes="ccsssssc"/>
     <path id="path2363" class="fil2" d="M868.615 567.983c0.001,0.003 0.001,0.003 0.001,0.003 0.663,1.451 0.019,3.175 -1.431,3.837 -1.45,0.662 -3.175,0.019 -3.837,-1.432 -0.004,-0.01 -0.013,-0.03 -0.018,-0.041 0.015,0.035 0.015,0.035 0.015,0.035 -0.662,-1.451 -0.02,-3.175 1.433,-3.837 1.45,-0.662 3.174,-0.019 3.837,1.432 0.004,0.01 0.013,0.031 0.018,0.041l-0.018 -0.038 -0.001 0 0.001 0z" sodipodi:ry="3.0935922" sodipodi:rx="3.0935922" sodipodi:cy="669.64063" sodipodi:cx="165.28621" sodipodi:type="arc"/>
     <path id="path2365" class="fil3" d="M853.603 568.692l2.778 2.797c-4.232,4.972 -5.359,5.281 -4.901,7.893 0.307,1.74 -0.526,4.527 -3.193,5.744 -2.666,1.217 -5.866,0.023 -7.085,-2.644 -1.217,-2.665 -0.031,-4.916 1.889,-6.412 1.179,-0.917 2.694,-0.881 3.993,-1.398 2.475,-0.985 6.519,-5.98 6.519,-5.98l-0.001 0 0.001 0z" sodipodi:nodetypes="ccsssssc"/>
     <path id="path2367" class="fil2" d="M843.419 581.487c0.002,0.003 0.002,0.003 0.002,0.003 0.662,1.451 2.386,2.093 3.837,1.431 1.45,-0.663 2.094,-2.385 1.431,-3.836 -0.004,-0.01 -0.014,-0.031 -0.019,-0.041 0.016,0.034 0.016,0.034 0.016,0.034 -0.662,-1.451 -2.386,-2.094 -3.837,-1.432 -1.451,0.663 -2.094,2.387 -1.432,3.837 0.005,0.011 0.015,0.032 0.02,0.042l-0.018 -0.038 0 0z" sodipodi:type="arc" sodipodi:cx="165.28621" sodipodi:cy="669.64063" sodipodi:rx="3.0935922" sodipodi:ry="3.0935922"/>
     <path id="path2370" class="fil3" d="M830.301 520.804l0.295 3.93c6.529,0.06 7.5,-0.589 9.174,1.469 1.115,1.369 3.765,2.566 6.432,1.349 2.664,-1.217 3.86,-4.418 2.643,-7.086 -1.219,-2.666 -3.695,-3.244 -6.084,-2.773 -1.466,0.29 -2.429,1.459 -3.673,2.101 -2.364,1.225 -8.787,1.008 -8.787,1.008l0 0.002z" sodipodi:nodetypes="ccsssssc"/>
     <path id="path2374" class="fil2" d="M846.64 521.49c0.001,0.001 0.001,0.001 0.001,0.001 0.663,1.451 0.019,3.176 -1.432,3.837 -1.451,0.663 -3.175,0.02 -3.837,-1.432 -0.004,-0.009 -0.014,-0.029 -0.018,-0.04 0.015,0.034 0.015,0.034 0.015,0.034 -0.662,-1.451 -0.018,-3.174 1.432,-3.837 1.451,-0.662 3.175,-0.019 3.836,1.432 0.005,0.01 0.015,0.031 0.02,0.041l-0.018 -0.037 0.001 0.001z" sodipodi:ry="3.0935922" sodipodi:rx="3.0935922" sodipodi:cy="669.64063" sodipodi:cx="165.28621" sodipodi:type="arc"/>
     <path id="path2376" class="fil3" d="M832.113 519.977l2.776 2.796c-4.231,4.972 -5.357,5.282 -4.9,7.894 0.306,1.739 -0.527,4.526 -3.193,5.743 -2.666,1.216 -5.867,0.022 -7.085,-2.643 -1.216,-2.667 -0.03,-4.918 1.89,-6.413 1.178,-0.919 2.693,-0.88 3.993,-1.399 2.475,-0.986 6.519,-5.978 6.519,-5.978z" sodipodi:nodetypes="ccsssssc"/>
     <path id="path2378" class="fil2" d="M821.929 532.771c0.002,0.002 0.002,0.002 0.002,0.002 0.662,1.451 2.386,2.093 3.837,1.432 1.451,-0.663 2.094,-2.386 1.431,-3.837 -0.005,-0.01 -0.014,-0.031 -0.019,-0.041 0.016,0.035 0.016,0.035 0.016,0.035 -0.662,-1.451 -2.386,-2.095 -3.837,-1.432 -1.45,0.662 -2.093,2.386 -1.431,3.837 0.004,0.01 0.014,0.031 0.018,0.041l-0.017 -0.037z" sodipodi:type="arc" sodipodi:cx="165.28621" sodipodi:cy="669.64063" sodipodi:rx="3.0935922" sodipodi:ry="3.0935922"/>
     <path id="path2380" class="fil3" d="M806.891 471.714l0.294 3.928c6.529,0.061 7.501,-0.588 9.174,1.468 1.115,1.371 3.766,2.567 6.431,1.352 2.666,-1.219 3.861,-4.419 2.644,-7.086 -1.217,-2.666 -3.695,-3.245 -6.083,-2.773 -1.465,0.29 -2.429,1.459 -3.673,2.101 -2.364,1.223 -8.788,1.008 -8.788,1.008l0 0.002 0.001 0z" sodipodi:nodetypes="ccsssssc"/>
     <path id="path2382" class="fil2" d="M823.228 472.4c0.002,0.003 0.002,0.003 0.002,0.003 0.663,1.452 0.019,3.175 -1.432,3.837 -1.451,0.662 -3.174,0.02 -3.837,-1.431 -0.005,-0.01 -0.014,-0.031 -0.019,-0.042 0.016,0.035 0.016,0.035 0.016,0.035 -0.662,-1.451 -0.019,-3.174 1.432,-3.837 1.451,-0.662 3.174,-0.019 3.837,1.432 0.004,0.01 0.014,0.031 0.018,0.041l-0.017 -0.038z" sodipodi:type="arc" sodipodi:cx="165.28621" sodipodi:cy="669.64063" sodipodi:rx="3.0935922" sodipodi:ry="3.0935922"/>
     <path id="path2384" class="fil3" d="M808.701 470.887l2.777 2.796c-4.232,4.972 -5.359,5.282 -4.9,7.894 0.306,1.74 -0.527,4.527 -3.193,5.744 -2.666,1.217 -5.867,0.023 -7.084,-2.644 -1.218,-2.665 -0.031,-4.918 1.888,-6.412 1.179,-0.917 2.694,-0.881 3.994,-1.4 2.473,-0.985 6.518,-5.978 6.518,-5.978l0 -0.001 0 0.001z" sodipodi:nodetypes="ccsssssc"/>
     <path id="path2386" class="fil2" d="M798.519 483.68c0.002,0.003 0.002,0.003 0.002,0.003 0.662,1.451 2.386,2.095 3.836,1.432 1.451,-0.663 2.094,-2.385 1.432,-3.836 -0.005,-0.011 -0.014,-0.031 -0.019,-0.041 0.016,0.034 0.016,0.034 0.016,0.034 -0.662,-1.451 -2.386,-2.094 -3.837,-1.432 -1.451,0.663 -2.094,2.387 -1.432,3.837 0.006,0.01 0.014,0.031 0.019,0.041l-0.017 -0.038 0 0z" sodipodi:ry="3.0935922" sodipodi:rx="3.0935922" sodipodi:cy="669.64063" sodipodi:cx="165.28621" sodipodi:type="arc"/>
     <path id="path2340" class="fil2" d="M848.131 555.655c-2.34,0.972 -5.811,-9.216 -8.36,-14.798 -2.615,-5.728 -7.924,-14.555 -6.416,-15.244 1.655,-0.755 3.834,3.88 6.51,9.741 2.675,5.859 10.458,19.387 8.265,20.299l0 0.002 0.001 0z" sodipodi:nodetypes="czzzz"/>
     <path id="path2342" class="fil2" d="M824.102 501.997c-2.34,0.974 -4.9,-5.698 -7.448,-11.28 -2.615,-5.727 -5.161,-9.772 -3.653,-10.461 1.655,-0.755 4.1,4.262 6.24,8.95 2.074,4.541 7.053,11.878 4.861,12.791z" sodipodi:nodetypes="czzzz"/>
     <path id="path2337" class="fil2" d="M879.704 623.656c-1.836,0.492 -9.854,-16.291 -16.337,-30.491 -6.481,-14.199 -11.308,-25.687 -9.8,-26.374 1.656,-0.756 6.903,12.657 13.388,26.858 6.483,14.201 14.126,29.638 12.751,30.007l-0.002 0z" sodipodi:nodetypes="czzzz"/>
    </g>
    <polygon id="path2754" class="fil1" points="893.847,462.883 894.2,549.319 900.55,559.55 940.769,581.776 992.278,605.415 998.981,612.47 1043.44,588.126 1095.65,563.429 1105.53,548.26 1105.53,463.236 "/>
    <path id="path2355" class="fil0" d="M891.388 358.835c0,0 2.673,7.793 2.673,7.793 0,0 -0.626,99.258 -0.626,99.258 0,0 3.698,4.095 3.698,4.095 0,0 30.545,3.64 30.545,3.64 0,0 33.048,-4.835 33.048,-4.835 0,0 19.191,2.963 32.424,5.007 0.014,0.067 0.398,1.99 0.398,1.99 0,0 4.801,-0.732 6.314,-0.967 1.486,0.23 6.257,0.967 6.257,0.967 0,0 0.384,-1.923 0.398,-1.99 13.232,-2.044 32.423,-5.007 32.423,-5.007 0,0 33.048,4.835 33.048,4.835 0,0 30.546,-3.64 30.546,-3.64 0,0 3.697,-4.095 3.697,-4.095 0,0 -0.626,-99.258 -0.626,-99.258 0,0 2.674,-7.793 2.674,-7.793 0,0 -36.575,0.283 -36.575,0.283 0,0 -41.8,0.415 -71.841,0.74 -30.034,-0.325 -71.899,-0.74 -71.899,-0.74 0,0 -36.574,-0.283 -36.574,-0.283l-0.001 0 -0.001 0z"/>
    <polygon id="path2756" class="fil2" points="901.988,469.453 918.452,462.967 929.929,453.986 937.911,462.468 953.878,468.955 940.904,476.438 929.429,486.417 919.451,478.934 "/>
    <polygon id="path2758" class="fil2" points="1069.63,454.486 1062.15,462.468 1046.18,468.955 1061.15,478.434 1070.63,486.916 1081.11,478.434 1098.07,469.953 1080.61,462.967 "/>
    <polygon id="path2760" class="fil2" points="999.778,372.66 994.789,387.629 980.321,380.642 986.806,395.113 972.836,400.601 986.806,405.59 980.82,420.059 994.291,413.073 999.778,428.041 1005.27,413.073 1018.74,419.062 1012.75,405.59 1026.72,400.601 1013.25,394.613 1019.24,380.145 1005.27,387.13 "/>
    <polygon id="path2762" class="fil2" points="1038.2,370.166 1042.69,386.131 1049.67,406.587 1050.67,426.046 1042.69,440.015 1028.22,446.004 1020.24,448.497 1010.76,443.508 1000.28,449.995 988.803,443.01 979.322,449.496 973.335,445.504 962.859,444.008 950.883,431.535 948.389,409.083 962.859,369.169 944.896,383.637 929.429,404.593 929.429,432.033 940.407,450.493 960.364,463.465 965.852,464.963 956.372,482.426 972.836,487.414 981.318,495.896 985.809,512.86 984.81,549.282 979.821,557.765 968.845,565.249 968.346,572.234 980.321,579.718 990.798,588.199 1006.27,588.698 1019.74,579.218 1031.21,572.733 1028.22,562.753 1016.25,553.275 1013.75,524.336 1017.24,495.398 1034.71,484.421 1043.69,481.428 1034.21,463.465 1048.68,458.477 1064.64,444.507 1072.13,416.566 1067.64,399.602 1056.66,385.633 " sodipodi:nodetypes="cccccccccccccccccccccccccccccccccccccccccccccccc"/>
    <polygon id="path2764" class="fil2" points="969.843,495.148 976.826,502.133 970.342,508.62 963.606,501.884 "/>
    <polygon id="path2766" class="fil2" points="1029.97,494.399 1022.98,501.635 1029.22,508.37 1036.7,501.884 "/>
    <polygon id="path2768" class="fil2" points="1034.96,512.86 1022.48,515.855 1019.24,523.089 1018.99,543.046 1024.23,554.272 1031.21,557.265 1030.22,531.071 "/>
    <polygon id="path2770" class="fil2" points="964.853,513.11 969.343,535.312 969.343,556.767 975.58,552.276 979.821,542.546 980.569,525.584 977.327,515.355 "/>
    <polygon id="path2772" class="fil2" points="1079.36,530.822 1064.89,523.837 1050.92,526.83 1043.69,535.312 1042.94,549.034 1053.17,561.006 1055.66,561.756 1055.41,548.783 1066.39,533.816 "/>
    <polygon id="path2774" class="fil2" points="941.653,526.082 940.156,520.096 932.422,515.604 925.937,518.099 922.693,524.834 924.44,530.822 917.703,530.074 912.216,535.312 911.468,542.298 915.21,546.787 920.448,548.535 923.443,548.285 920.948,554.521 922.943,560.758 929.18,564.251 936.166,562.505 939.908,555.519 945.893,559.51 953.127,558.015 957.868,550.779 954.624,544.044 951.133,541.298 956.121,538.556 958.119,530.323 951.382,522.589 944.896,523.588 "/>
    <path id="path2169" class="fil3" d="M963.4 364.41c-1.043,7.308 -37.825,22.501 -37.825,53.127 0,39.212 36.689,48.463 36.689,48.463l-1.538 2.787 -8.929 16.268c0,0 15.16,0.758 23.208,7.622 9.703,8.276 8.759,25.81 8.759,38.566 0,10.05 -1.27,20.655 -6.427,25.027 -6.924,5.871 -11.605,6.305 -11.605,13.197 0,5.749 4.419,6.901 11.605,10.694 9.209,4.86 8.779,11.376 22.467,11.376 13.69,0 13.316,-6.516 22.526,-11.376 7.186,-3.793 11.604,-4.945 11.604,-10.694 0,-6.892 -4.681,-7.326 -11.604,-13.197 -5.158,-4.373 -6.428,-14.978 -6.428,-25.027 0,-12.756 -0.943,-30.29 8.76,-38.566 8.047,-6.863 23.207,-7.622 23.208,-7.622l-8.931 -16.268 -1.535 -2.787c0,0 36.688,-9.251 36.688,-48.463 0,-30.626 -36.782,-45.819 -37.827,-53.127 -3.595,12.645 12.287,30.111 12.287,50.795 0,26.763 -19.738,28.043 -19.738,28.043 -4.619,0 -6.49,3.299 -8.305,3.299 -3.886,-0.406 -5.715,-5.348 -9.556,-5.348 -3.608,0 -6.379,5.575 -11.148,5.575 -4.769,0 -7.483,-5.575 -11.092,-5.575 -3.84,0 -5.67,4.942 -9.556,5.348 -1.815,0 -3.687,-3.299 -8.306,-3.299 0,0 -19.737,-1.28 -19.737,-28.043 0,-20.684 15.883,-38.15 12.286,-50.795l0 0zm75.538 104.377c0,0 24.651,10.873 31.115,20.136 14.026,-10.611 32.478,-18.941 32.478,-18.941 0,0 -17.686,-4.613 -32.478,-17.918 -8.46,11.184 -31.115,16.723 -31.115,16.723l0 0zm-78.212 0c0,0 -22.652,-5.539 -31.113,-16.723 -14.793,13.306 -32.48,17.918 -32.48,17.918 0,0 18.452,8.33 32.48,18.941 6.463,-9.262 31.113,-20.136 31.113,-20.136l0 0zm39.079 -101.647l-6.372 18.089 -17.349 -8.249 8.248 17.35 -18.088 6.427 18.088 6.428 -8.248 17.292 17.349 -8.248 6.372 18.088 6.427 -18.088 17.349 8.248 -8.247 -17.292 18.088 -6.428 -18.088 -6.427 8.247 -17.35 -17.349 8.249 -6.427 -18.089zm-41.751 8.361c1.508,3.249 -12.287,23.278 -12.287,39.704 0,20.143 10.742,32.024 25.085,32.024 2.736,0 5.728,3.697 8.305,3.697 4.202,0 6.997,-4.664 9.556,-4.664 3.252,0 5.445,5.119 11.091,5.119 5.647,0 7.896,-5.119 11.149,-5.119 2.558,0 5.354,4.664 9.556,4.664 2.578,0 5.569,-3.697 8.305,-3.697 14.343,0 25.085,-11.881 25.085,-32.024 0,-16.426 -13.795,-36.455 -12.287,-39.704 0,0 26.905,19.299 26.905,42.036 0,36.626 -37.144,45.676 -37.144,45.676l8.362 18.827c0,0 -11.513,1.726 -18.543,7.395 -9.377,7.562 -9.5,27.991 -9.5,41.808 0,16.275 0.605,23.171 6.485,27.587 6.2,4.659 10.864,5.662 10.864,10.41 0,4.138 -4.827,5.829 -11.092,8.589 -7.125,3.14 -7.835,8.589 -18.145,8.589 -10.31,0 -10.963,-5.449 -18.088,-8.589 -6.264,-2.76 -11.092,-4.451 -11.092,-8.589 0,-4.748 4.663,-5.751 10.863,-10.41 5.881,-4.416 6.485,-11.312 6.485,-27.587 0,-13.817 -0.123,-34.246 -9.5,-41.808 -7.031,-5.67 -18.543,-7.395 -18.543,-7.395l8.361 -18.827c0,0 -37.142,-9.05 -37.142,-45.676 0,-22.737 26.904,-42.036 26.904,-42.036l0.002 0zm41.808 3.811l4.095 11.548 11.035 -5.29 -5.233 11.091 11.491 4.096 -11.491 4.095 5.233 11.035 -11.035 -5.233 -4.152 11.49 -4.096 -11.49 -11.035 5.233 5.233 -11.035 -11.49 -4.095 11.49 -4.096 -5.233 -11.091 11.035 5.29 4.153 -11.548zm-70.591 78.327c7.477,8.559 19.341,11.831 19.341,11.831 -0.002,0 -12.349,6.472 -18.999,14.107 0,0.015 0,0.454 0,0.454 -0.066,-0.061 -0.159,-0.108 -0.229,-0.17 -0.131,0.153 -0.272,0.299 -0.398,0.455 0,0 0,-0.751 0,-0.796 -7.036,-6.219 -21.046,-13.197 -21.046,-13.197 0,0 13.43,-4.629 21.331,-12.685l0 0.001 0 0zm141.124 0c7.902,8.055 21.331,12.684 21.331,12.684 0,0 -14.01,6.978 -21.047,13.197 0.001,0.045 0,0.796 0,0.796 -0.126,-0.155 -0.267,-0.301 -0.397,-0.455 -0.069,0.063 -0.162,0.108 -0.227,0.17 0,0 -0.002,-0.438 0,-0.454 -6.651,-7.635 -18.999,-14.107 -18.999,-14.107 0,0 11.863,-3.272 19.339,-11.831l0 0zm-100.397 35.266l-8.816 8.816 8.816 8.817 8.817 -8.817 -8.817 -8.816zm59.67 0l-8.816 8.816 8.816 8.817 8.817 -8.817 -8.817 -8.816zm-59.67 4.209l4.608 4.606 -4.608 4.665 -4.664 -4.665 4.664 -4.606zm59.67 0l4.665 4.606 -4.665 4.665 -4.607 -4.665 4.607 -4.606zm-67.802 13.424c1.752,4.332 5.915,17.752 5.915,33.844 0,11.14 -1.081,17.008 -1.081,17.008 0,0 12.429,-3.659 14.904,-16.268 1.16,-5.911 2.453,-27.687 -3.527,-31.399 0,0 -16.211,-3.185 -16.211,-3.185l0 0zm75.936 0c0,0 -16.212,3.186 -16.212,3.186 -5.98,3.711 -4.687,25.487 -3.527,31.399 2.475,12.609 14.903,16.268 14.903,16.268 0,0 -1.08,-5.869 -1.08,-17.008 0,-16.092 4.163,-29.513 5.916,-33.845l0 0 0 0zm-106.14 3.527c-0.694,0.03 -1.406,0.109 -2.105,0.284 -5.59,1.402 -8.968,7.094 -7.565,12.684 0.215,0.856 0.568,1.646 0.967,2.389 -0.814,-0.271 -1.664,-0.45 -2.56,-0.512 -0.359,-0.025 -0.728,-0.012 -1.08,0 -5.29,0.177 -9.7,4.337 -10.068,9.727 -0.394,5.749 3.976,10.699 9.727,11.092 0.858,0.058 1.692,0.027 2.502,-0.114 -0.495,0.678 -0.923,1.403 -1.251,2.218 -2.151,5.347 0.455,11.501 5.802,13.652 5.347,2.15 11.443,-0.512 13.594,-5.859 0.328,-0.816 0.512,-1.614 0.626,-2.446 0.493,0.684 1.085,1.31 1.763,1.877 4.421,3.697 11.034,3.112 14.732,-1.308 3.698,-4.42 3.112,-10.978 -1.308,-14.676 -0.67,-0.56 -1.412,-0.999 -2.161,-1.364 0.803,-0.258 1.584,-0.613 2.332,-1.081 4.883,-3.061 6.36,-9.565 3.299,-14.448 -2.105,-3.357 -5.802,-5.082 -9.499,-4.835 -1.681,0.112 -3.366,0.636 -4.893,1.593 -0.745,0.467 -1.408,0.986 -1.99,1.592 0.002,-0.841 -0.07,-1.705 -0.284,-2.559 -1.227,-4.892 -5.724,-8.116 -10.581,-7.907l0 0 0.001 0.001zm35.891 1.364c0,0 8.704,1.821 8.704,1.821 3.219,4.443 2.672,11.624 2.672,21.616 0,10.075 -7.565,13.935 -7.565,13.935 0,-24.215 -2.496,-30.037 -3.811,-37.371l0 0 0 -0.001zm64.56 0c-1.316,7.335 -3.81,13.157 -3.81,37.371 0,0 -7.566,-3.86 -7.566,-13.935 0,-9.991 -0.546,-17.172 2.674,-21.615 0,0 8.702,-1.821 8.702,-1.821l0 0zm-99.826 3.016c3.771,-0.162 7.236,2.339 8.191,6.143 0.227,0.906 0.251,1.797 0.17,2.674 -0.066,0.726 -0.26,1.387 -0.512,2.047 -1.259,-0.46 -2.621,-0.683 -4.039,-0.683 -3.51,0 -6.652,1.544 -8.817,3.982 -0.567,-0.502 -1.061,-1.058 -1.478,-1.706 -0.466,-0.721 -0.861,-1.51 -1.081,-2.389 -1.091,-4.348 1.567,-8.75 5.915,-9.841 0.543,-0.137 1.111,-0.205 1.65,-0.228l0 0.001 0.001 0zm129.973 3.356c-13.353,0 -23.125,10.29 -21.784,22.922 1.13,10.652 9.787,19.577 20.477,22.127 -1.826,-2.985 -3.039,-6.313 -3.413,-9.84 -1.34,-12.633 8.431,-22.867 21.786,-22.867 2.105,0 4.144,0.26 6.142,0.74 -4.708,-7.718 -13.572,-13.083 -23.208,-13.083l0.001 0.001 -0.001 0zm-113.705 2.9c2.609,0.087 5.109,1.437 6.597,3.811 2.382,3.798 1.239,8.824 -2.559,11.205 -0.793,0.497 -1.642,0.827 -2.504,1.024 -0.718,0.166 -1.448,0.15 -2.161,0.114 0.003,-0.116 0,-0.224 0,-0.342 0,-4.832 -2.906,-9.01 -7.053,-10.863 0.293,-0.709 0.638,-1.385 1.137,-1.991 0.536,-0.649 1.18,-1.234 1.935,-1.707 1.424,-0.893 3.041,-1.304 4.607,-1.251l0 0 0.001 0zm113.705 1.821c4.181,0 8.197,1.28 11.661,3.413 -13.032,2.52 -22.411,14.031 -21.046,27.474 -4.154,-3.44 -7.192,-8.073 -7.735,-13.196 -1.058,-9.977 6.189,-17.691 17.122,-17.691l-0.002 0 0 0zm-139.927 4.891c0.946,0.065 1.794,0.326 2.616,0.682 0.658,0.287 1.265,0.656 1.82,1.081 -1.58,2.023 -2.502,4.578 -2.502,7.338 0,2.164 0.58,4.171 1.591,5.916 -0.686,0.43 -1.407,0.769 -2.217,0.967 -0.785,0.191 -1.598,0.285 -2.447,0.228 -4.471,-0.307 -7.87,-4.174 -7.564,-8.646 0.306,-4.472 4.231,-7.872 8.703,-7.566l0 0 0 0zm13.765 1.194c4.341,0 7.85,3.565 7.85,7.908 0,4.342 -3.509,7.85 -7.85,7.85 -4.343,0 -7.851,-3.508 -7.851,-7.85 0,-4.343 3.509,-7.908 7.851,-7.908zm11.774 9.044c0.777,0.087 1.528,0.273 2.274,0.569 0.776,0.308 1.544,0.686 2.218,1.251 3.438,2.877 3.843,7.995 0.968,11.434 -2.877,3.438 -7.996,3.9 -11.434,1.024 -0.725,-0.607 -1.253,-1.336 -1.706,-2.105 -0.361,-0.612 -0.595,-1.264 -0.796,-1.934 4.577,-1.322 8.003,-5.357 8.476,-10.238l0 -0.001 0 0zm-21.616 5.462c2.125,3.146 5.753,5.233 9.842,5.233 0.859,0 1.694,-0.11 2.502,-0.285 0.17,0.746 0.275,1.5 0.228,2.276 -0.052,0.842 -0.18,1.675 -0.513,2.503 -1.672,4.158 -6.421,6.166 -10.58,4.493 -4.159,-1.672 -6.224,-6.42 -4.551,-10.58 0.338,-0.839 0.807,-1.57 1.366,-2.218 0.492,-0.571 1.081,-1.024 1.706,-1.422l0.001 0 -0.001 0zm59.498 19.339c-7.297,0 -11.944,1.54 -11.944,3.755 0,2.215 4.648,3.697 11.944,3.697 1.945,0 4.153,-1.132 4.153,-3.697 0,-2.566 -2.209,-3.755 -4.153,-3.755zm28.158 0c-1.945,0 -4.153,1.189 -4.153,3.755 -0.001,2.565 2.208,3.697 4.153,3.697 7.297,0 11.944,-1.482 11.944,-3.697 0,-2.216 -4.648,-3.755 -11.944,-3.755z"/>
    <path id="rect2189" class="fil2" d="M881.889 356.049c0,0 9.67,7.255 9.67,14.618l0 152.442 0 23.095c0,4.625 1.429,7.636 3.697,10.58 2.268,3.17 7.101,7.55 12.116,10.808 15.489,10.059 41.385,20.666 60.977,29.578 16.328,7.427 22.968,10.423 31.455,20.932 8.488,-10.509 15.185,-13.504 31.513,-20.932 19.59,-8.912 45.487,-19.519 60.977,-29.578 5.016,-3.258 9.848,-7.638 12.115,-10.808 2.268,-2.944 3.64,-5.955 3.64,-10.58l0 -23.095 0 -152.442c0,-7.363 9.67,-14.618 9.67,-14.618l-10.296 0 -6.029 0 -101.591 0 -101.59 0 -6.029 0 -10.297 0 0.002 0zm12.399 5.574l3.925 0 101.59 0 101.591 0 3.925 0c0,0 -2.844,3.423 -2.844,9.044l0 152.442c0,0 0,23.095 0,23.095 0,3.831 -3.975,12.806 -26.905,24.231 -37.902,18.886 -67.035,27.704 -75.766,38.452 -8.731,-10.748 -37.864,-19.566 -75.766,-38.452 -22.93,-11.425 -26.905,-20.4 -26.905,-24.231 0,0 0,-23.095 0,-23.095l0 -152.442c0,-5.621 -2.844,-9.044 -2.844,-9.044l0 0 -0.001 0z"/>
    <path id="path2193" class="fil3" d="M994.515 248.803c0.001,3.423 -3.678,6.216 -8.191,6.216 -4.512,0 -8.192,-2.793 -8.192,-6.218 0,-3.425 3.68,-6.218 8.192,-6.218 4.513,0 8.192,2.794 8.192,6.218l-0.001 0.002 0 0z" sodipodi:ry="1.3125" sodipodi:rx="1.3125" sodipodi:cy="190.86218" sodipodi:cx="251.8125" sodipodi:type="arc"/>
    <path id="path2192" class="fil0" d="M947.036 245.209c0,0 2.688,-5.089 9.483,-5.089 2.84,0 12.213,-0.197 12.213,-0.197 1.249,3.246 6.944,8.67 6.944,14.309 0,0 -5.78,-10.418 -21.914,-10.418 -4.055,0 -6.727,1.395 -6.727,1.395l0.001 0z" sodipodi:nodetypes="csccsc"/>
    <path id="path2194" class="fil3" d="M967.821 246.635c0,0 -3.964,-1.271 -3.964,-2.603 0,-1.696 1.926,-1.695 3.077,-0.375 0.793,0.91 0.886,2.978 0.886,2.978l0.001 0z" sodipodi:nodetypes="cssc"/>
    <path id="path2196" class="fil0" d="M973.264 256.226c0,0 -3.438,3.62 -4.184,5.552 -3.4,-1.288 -9.332,-7.401 -9.332,-7.401 0,0 5.028,2.936 13.515,1.849l0 0 0.001 0z" sodipodi:nodetypes="cccc"/>
    <g id="g2348">
     <path id="path2206" class="fil3" d="M1226.37 437.388l-12.628 9.216 1.423 3.014c0,0 -2.311,0.793 -3.357,2.843 -1.044,2.052 0.683,4.949 0.683,4.949 0,0 -12.004,-1.047 -13.879,0.171 -1.697,1.101 0.719,9.416 -0.399,16.439 -1.557,9.789 -5.416,8.967 -5.574,10.864 -0.154,1.843 1.479,4.721 1.479,4.721 0,0 -2.251,0.709 -2.73,1.65 -0.772,1.514 0.538,4.306 -0.398,6.143 -5.222,10.247 -12.933,25.373 -18.032,35.381 -0.712,1.397 -2.626,1.931 -3.584,3.811 -0.884,1.736 -0.17,4.266 -0.17,4.266 0,0 -3.379,0.201 -4.551,2.503 -1.245,2.444 -0.512,5.744 -0.512,5.744 0,0 -2.137,0.274 -3.187,2.333 -1.121,2.201 0.778,3.355 0.287,4.323 -6.854,13.447 -14.927,29.298 -19.852,38.964 -1.812,3.555 -8.153,4.267 -11.833,11.49 -3.57,7.007 1.536,12.173 1.536,12.173 0,0 -5.303,0.479 -6.712,3.243 -1.435,2.816 -0.299,7.094 3.527,9.044 3.826,1.949 8.007,0.371 9.444,-2.445 1.407,-2.764 -1.423,-7.338 -1.423,-7.338 0,0 7.181,1.034 10.75,-5.974 3.681,-7.223 0.578,-12.712 2.389,-16.267 4.926,-9.667 13,-25.517 19.852,-38.964 0.494,-0.968 2.519,-0.131 3.64,-2.332 1.049,-2.059 0,-3.925 0,-3.925 0,0 3.136,-1.366 4.381,-3.811 1.173,-2.301 -0.626,-5.176 -0.626,-5.176 0,0 2.471,-0.88 3.356,-2.616 0.958,-1.88 0.254,-3.723 0.966,-5.121 5.099,-10.007 12.811,-25.133 18.032,-35.38 0.937,-1.838 3.95,-2.468 4.721,-3.982 0.48,-0.941 -0.283,-3.185 -0.283,-3.185 0,0 3.321,-0.329 4.721,-1.537 1.441,-1.242 -1.487,-3.906 5.518,-10.921 5.024,-5.031 13.131,-7.991 13.025,-10.011 -0.117,-2.233 -8.02,-11.319 -8.02,-11.319 0,0 3.335,-0.281 4.38,-2.332 1.045,-2.051 0.341,-4.437 0.341,-4.437l3.299 -0.569 0 -15.643 0 -0.001 0 0.001zm-118.713 225.308c-1.619,0.163 -2.63,1.122 -2.957,1.764 -0.498,0.975 -0.589,2.307 0,3.469 0,0 -3.981,-1.245 -5.347,-0.569 -1.286,0.637 0,19.397 0,19.397 0,0 15.883,-10.02 15.642,-11.434 -0.256,-1.502 -3.584,-4.039 -3.584,-4.039 1.287,-0.206 2.29,-1.013 2.788,-1.99 0.523,-1.027 0.592,-3.964 -3.015,-5.802 -1.351,-0.689 -2.554,-0.894 -3.527,-0.796l0 0z"/>
     <path id="path2220" class="fil2" d="M1224.03 441.996l-7.395 5.233 3.753 1.935 3.755 1.876 -0.113 -9.044 -0.001 0 0.001 0zm-7.168 8.703c-1.342,0.093 -2.525,0.808 -3.128,1.991 -0.964,1.894 -0.027,4.318 2.105,5.404 2.133,1.086 4.609,0.414 5.575,-1.479 0.965,-1.894 0.027,-4.317 -2.105,-5.404 -0.8,-0.407 -1.641,-0.567 -2.446,-0.512l0 0 -0.001 0zm-13.935 8.703c-1.114,0.014 -1.922,0.052 -2.105,0.171 -0.79,0.512 0.285,7.273 0.057,13.025 -0.215,5.425 -1.951,6.952 -2.901,8.816 -0.876,1.721 -4.038,3.755 -4.038,3.755 0,0 2.616,2.617 2.616,2.617 0,0 1.702,-2.651 4.38,-7.908 3.159,-6.199 3.057,-17.431 3.982,-18.031 0.806,-0.521 7.395,-2.161 7.395,-2.161 -0.001,0 -6.046,-0.327 -9.385,-0.284l-0.001 0 0 0zm11.489 1.536c0,0 -6.928,1.329 -7.907,2.276 -0.947,0.915 -0.53,10.298 -4.209,17.519 -3.05,5.987 -4.55,8.191 -4.55,8.191l1.877 0.967 1.877 0.91c0,0 0.874,-2.431 3.925,-8.419 3.679,-7.221 11.533,-12.459 11.717,-13.765 0.19,-1.347 -2.73,-7.678 -2.73,-7.678l0 -0.001 0 0zm2.219 0.909c0,0 2.508,6.324 2.559,7.281 0.059,1.1 -9.07,7.623 -12.229,13.822 -2.678,5.257 -3.811,8.191 -3.811,8.191 0,0 3.641,0.569 3.641,0.569 0,0 -0.251,-3.741 0.625,-5.461 0.949,-1.863 1.199,-4.146 5.461,-7.508 4.52,-3.565 10.63,-6.682 10.58,-7.622 -0.046,-0.869 -6.825,-9.272 -6.825,-9.272l-0.001 0 0 0zm-20.591 29.807c-1.147,0.124 -1.982,0.852 -2.446,1.763 -0.691,1.358 -0.316,3.172 -5.802,13.937 -2.405,4.719 -3.374,6.618 -5.974,11.717 -2.643,5.189 -6.484,12.685 -6.484,12.685 0,0 -1.306,2.395 1.137,3.64 2.443,1.244 3.527,-1.252 3.527,-1.252 0,0 3.841,-7.497 6.484,-12.685 2.6,-5.099 3.568,-7.054 5.974,-11.774 5.484,-10.765 7.159,-11.498 7.85,-12.855 0.743,-1.458 0.565,-3.42 -1.877,-4.665 -0.916,-0.466 -1.701,-0.585 -2.388,-0.511l0 -0.001 -0.001 0.001zm-23.607 44.88c-0.921,0.08 -1.65,0.47 -1.989,1.136 -0.68,1.335 0.483,3.294 2.616,4.381 2.132,1.085 4.44,0.879 5.12,-0.455 0.679,-1.334 -0.541,-3.294 -2.674,-4.381 -1.066,-0.543 -2.149,-0.763 -3.071,-0.681l-0.001 0 -0.001 0zm-3.185 6.54c-1.528,-0.072 -2.863,0.457 -3.412,1.536 -0.88,1.725 0.491,4.203 3.072,5.519 2.579,1.314 5.377,0.985 6.257,-0.74 0.879,-1.727 -0.493,-4.203 -3.072,-5.519 -0.968,-0.492 -1.926,-0.752 -2.845,-0.796zm-4.323 8.135c-0.921,0.081 -1.65,0.471 -1.991,1.138 -0.679,1.333 0.485,3.293 2.617,4.379 2.132,1.087 4.439,0.879 5.12,-0.454 0.68,-1.334 -0.484,-3.294 -2.616,-4.38 -1.067,-0.544 -2.207,-0.764 -3.128,-0.683l-0.002 0zm-1.876 6.997c-1.347,0.174 -1.992,1.536 -1.992,1.536 0,0 -13.831,27.222 -18.712,36.802 -1.559,3.06 -8.124,4.966 -10.694,10.011 -2.588,5.076 -0.761,9.827 2.616,11.546 3.377,1.721 8.335,0.47 10.922,-4.606 2.57,-5.045 0.261,-11.503 1.819,-14.563 4.882,-9.581 18.715,-36.802 18.715,-36.802 0,0 1.362,-2.395 -1.081,-3.64 -0.611,-0.311 -1.143,-0.342 -1.592,-0.284l-0.001 0 0 0zm-33.39 62.683c-1.554,0.043 -2.937,0.777 -3.584,2.047 -1.036,2.034 0.149,4.744 2.673,6.029 2.524,1.287 5.449,0.668 6.485,-1.365 1.036,-2.033 -0.206,-4.744 -2.73,-6.029 -0.947,-0.483 -1.912,-0.708 -2.844,-0.683l0 0.001zm-22.013 43.628c-0.79,0.027 -1.442,0.277 -1.706,0.797 -0.53,1.039 0.565,2.681 2.446,3.64 1.881,0.958 3.849,0.869 4.38,-0.171 0.53,-1.04 -0.566,-2.682 -2.446,-3.64 -0.941,-0.479 -1.883,-0.653 -2.674,-0.626l0 0zm-6.485 5.119l0 13.425 10.923 -7.851c0,0 -1.482,-2.615 -4.723,-4.266 -3.24,-1.65 -6.2,-1.308 -6.2,-1.308z"/>
    </g>
    <path id="path2191" class="fil2" d="M992.012 248.803c0.001,3.132 -2.555,5.687 -5.689,5.687 -3.134,0 -5.689,-2.555 -5.689,-5.689 0,-3.133 2.555,-5.689 5.689,-5.689 3.133,0 5.689,2.556 5.689,5.689l-0.001 0.002 0.001 0z" sodipodi:type="arc" sodipodi:cx="251.8125" sodipodi:cy="190.86218" sodipodi:rx="1.3125" sodipodi:ry="1.3125"/>
    <path id="path2189" class="fil3" d="M988.93 248.803c0,1.435 -1.17,2.607 -2.607,2.607 -1.437,0 -2.608,-1.172 -2.608,-2.607 0,-1.437 1.172,-2.608 2.608,-2.608 1.436,0 2.607,1.171 2.607,2.608l0 0 0 0z" sodipodi:ry="1.3125" sodipodi:rx="1.3125" sodipodi:cy="190.86218" sodipodi:cx="251.8125" sodipodi:type="arc"/>
   </g>
  </g>
 </g>
</svg>
