<?xml version="1.0" encoding="UTF-8"?>
<svg version="1.0" xmlns="http://www.w3.org/2000/svg" xmlns:xlink="http://www.w3.org/1999/xlink" width="900" height="600">
	<rect width="450" height="600" fill="#fff"/>
	<rect x="450" width="450" height="600" fill="#cf142b"/>
	<path d="m 22.222223,82.827735 0,45.456795 45.454779,0 c 0,7.57407 7.576225,15.15066 15.152449,15.15066 l 0,45.45428 45.452209,0 0,-45.45428 c 7.57622,0 15.15245,-7.57659 15.15245,-15.15066 l 45.45478,0 0,-45.456795 -45.45478,0 c 0,-7.574074 -7.57623,-15.150663 -15.15245,-15.150663 l 0,-45.454276 -45.452209,0 0,45.454276 c -7.576224,0 -15.152449,7.576589 -15.152449,15.150663 l -45.454779,0 z" fill="#e60d2e"/>
	<path d="m 25.253515,85.856542 0,39.396658 45.452216,0 c 0,7.57385 7.576223,15.15044 15.152446,15.15044 l 0,45.4545 39.392253,0 0,-45.4545 c 7.57623,0 15.15245,-7.57659 15.15245,-15.15044 l 45.45222,0 0,-39.396658 -45.45222,0 c 0,-7.574075 -7.57622,-15.150664 -15.15245,-15.150664 l 0,-45.454276 -39.392253,0 0,45.454276 c -7.576223,0 -15.152446,7.576589 -15.152446,15.150664 l -45.452216,0 z" fill="#96877d"/>
	<path d="m 26.769786,87.372774 0,36.363966 45.452214,0 c 0,7.57408 7.576228,15.15318 15.152451,15.15318 l 0,45.45428 36.362279,0 0,-45.45428 c 7.57622,0 15.15245,-7.5791 15.15245,-15.15318 l 45.45221,0 0,-36.363966 -45.45221,0 c 0,-7.573846 -7.57623,-15.150435 -15.15245,-15.150435 l 0,-45.454276 -36.362279,0 0,45.454276 c -7.576223,0 -15.152451,7.576589 -15.152451,15.150435 l -45.452214,0 z" fill="#cccccc"/>
	<g id="vi">
		<path d="m 84.535692,71.680501 c 2.662636,2.66278 1.943119,7.69936 -1.607064,11.249657 -3.550195,3.550298 -8.586685,4.269776 -11.249324,1.607225 -2.662634,-2.662552 -1.943118,-7.69936 1.607065,-11.249657 3.550194,-3.550069 8.586687,-4.269776 11.249323,-1.607225 z" fill="#96877d"/>
		<path d="m 71.143413,79.715481 1.071239,-1.072245 4.285638,2.142204 -2.142959,-4.285323 1.071445,-1.072245 4.285469,8.571102 -8.570832,-4.285551 z" fill="#d0d0d0"/>
		<rect x="3.0312359" y="106.67305" width="1.515152" height="9.0909128" transform="matrix(.70709679,-.70711678,.70709679,.70711678,0,0)" fill="#d0d0d0"/>
	</g>
	<use xlink:href="#vi" transform="rotate(90 105.5,105.5)"/>
	<use xlink:href="#vi" transform="rotate(180 105.5,105.5)"/>
	<use xlink:href="#vi" transform="rotate(270 105.5,105.5)"/>
	<path d="m 137.3732,105.55682 c .004,17.57567 -14.24246,31.82579 -31.81779,31.82579 -17.575335,0 -31.821826,-14.25012 -31.817798,-31.82579 -.004,-17.575678 14.242463,-31.825793 31.817788,-31.825793 17.57534,0 31.82183,14.250115 31.8178,31.825793 z" fill="none" stroke="#96877d" stroke-width=".5"/>
	<path d="m 129.79712,105.55705 c .003,13.39117 -10.85134,24.24851 -24.24201,24.24851 -13.390675,0 -24.245095,-10.85734 -24.242026,-24.24851 -.0031,-13.390952 10.851351,-24.248291 24.242026,-24.248291 13.39067,0 24.24508,10.857339 24.24201,24.248291 z" fill="none" stroke="#96877d" stroke-width=".5"/>
	<path d="m 94.949154,131.3147 c 8.14e-4,.54184 -.287792,1.04253 -.756905,1.31459 -.469113,.27206 -1.047325,.27206 -1.516438,0 -.469113,-.27206 -.757727,-.77275 -.756904,-1.31459 -8.1e-4,-.54183 .287791,-1.04252 .756904,-1.31458 .469113,-.27206 1.047325,-.27206 1.516438,0 .469113,.27206 .757705,.77275 .756905,1.31458 z" fill="#000"/>
	<path d="m 104.54529,131.31493 0,1.57979 -2.02028,0 c -2.02028,0 -2.02028,1.57979 0,1.57979 l 2.02028,0 0,1.57979 c .007,1.63695 1.76317,1.83585 1.89172,.13718 l .12826,-1.70782 2.02028,0 c 2.01998,0 2.01998,-1.57979 0,-1.57979 l -2.02028,0 0,-1.57979 c 0,-1.57979 -2.02,-1.57979 -2.02,0 z" fill="#000"/>
	<path d="m 119.19122,131.3147 c 8.1e-4,.54184 -.2878,1.04253 -.75691,1.31459 -.46911,.27206 -1.04732,.27206 -1.51644,0 -.46911,-.27206 -.7577,-.77275 -.7569,-1.31459 -8e-4,-.54183 .28779,-1.04252 .7569,-1.31458 .46912,-.27206 1.04733,-.27206 1.51644,0 .46911,.27206 .75771,.77275 .75691,1.31458 z" fill="#000"/>
	<g fill="#96877d" fill-rule="evenodd" stroke="#000" stroke-width=".2">
		<path d="m 122.85026,110.18638 c .53163,-.13451 1.40915,-.0256 1.40915,-.0256 0,0 .0769,.3651 -.15373,.4868 .25621,.14732 1.17857,.10248 1.17857,.10248 0,0 -.3587,.27543 -.53804,.38431 .33307,.032 .743,.46118 .743,.46118 0,0 -.76862,.1281 -1.1017,-.0512 .20497,.40993 .17935,.76863 .17935,.76863 0,0 -1.24262,-.30745 -1.69098,-1.12732"/>
		<path d="m 120.77496,109.49461 c -.30104,.74301 -2.51085,-.64052 -2.51085,-.64052 0,0 .9736,1.54366 2.43399,1.7166"/>
		<path d="m 93.181219,123.66299 25.877141,0 1.99843,-1.5885 -3.33072,-1.79346 -5.12418,-1.74223 -2.04968,-1.12732 -3.7919,.20497 -3.17699,1.69098 -4.355561,.51242 -1.024837,1.17856 -3.228239,.25621 -5.072943,-.10248 8.454907,1.33229 -6.968892,-.3587 1.793464,1.53726 z"/>
		<path d="m 107.11901,116.23292 c -3.24105,-1.74223 -4.18903,2.54928 -5.58537,3.58693 1.88314,.32026 3.3051,-1.44758 4.91922,-2.30588 1.22404,3.33297 3.15138,1.12732 3.15138,1.12732 0,0 2.01124,3.1898 4.68863,1.74222 .73019,.55085 1.53725,.0512 1.53725,.0512 0,0 .9736,.17935 1.17857,-.25621 .51241,.17935 1.07607,-.46117 1.07607,-.46117 0,0 1.11451,.0128 1.33229,-.56366 1.65255,.29464 3.84314,-3.38197 3.84314,-3.38197 l .66615,-1.28104 .97359,-.20497 c 0,0 .0641,-.64052 -.46118,-.6149 -.0128,-.38432 -.34588,-.58929 -.81986,-.51242 .0897,-.23059 -.25621,-.40994 -.25621,-.40994 -.92236,.23059 -.9736,2.5621 -.9736,2.5621 0,0 -1.61412,1.2298 -2.2034,1.53725 -.0256,-1.33229 -2.25464,-3.13856 -1.79346,-3.99686 .46117,-.8583 1.90875,1.31948 3.17699,.92235 1.26823,-.39712 1.89137,-2.0468 1.94719,-3.33072 -.35869,-.87111 -1.2298,-2.30588 -1.2298,-2.30588 l -.81987,-.0512 -.71739,-1.74222 c 0,0 -1.51164,.98641 -1.48601,1.84471 .0256,.8583 1.58849,1.5885 1.58849,1.5885 0,0 -.90121,.56325 -1.74222,.30745 -.0769,.87111 1.02484,.70457 1.43477,.71738 .20497,.62771 .81987,.9736 .81987,.9736 0,0 .38432,.96078 -.6149,.87111 -.99922,-.0897 -2.17808,-2.39194 -3.58693,-1.33229 -1.49882,1.12732 .66614,3.177 .66614,3.177 0,0 -1.31947,.69176 -2.10091,2.45961 -3.18981,-2.6902 -5.06013,-1.43478 -8.60863,-.71739 z"/>
		<path d="m 102.456,111.67239 c 1.33228,1.25543 .40316,3.34221 .92235,3.74066 .55085,.42274 1.33229,-.20497 1.33229,-.20497 1.39634,.37151 3.89438,-.40993 3.89438,-.40993 1.09936,.61473 .66541,-.29241 1.33229,-.25621 .58928,1.51163 2.56209,1.2298 2.56209,1.2298 0,0 -1.80627,-1.8447 -2.92078,-2.35712 -.8583,.51242 -3.35635,.58928 -3.7919,.51242 -.48533,-.0857 -.17935,-.67896 -.40994,-1.02484 .91849,-.89406 .19216,-3.11294 -.30745,-3.94562 -2.03603,-1.35632 -4.4684,.96777 -2.61333,2.71581 z"/>
		<path d="m 93.598545,107.91575 c -1.675798,.45291 -4.583534,-2.16495 -5.94229,-1.15947 -1.358753,1.00548 -.724669,3.47841 .181168,4.71035 .884999,1.20359 -1.295346,1.63956 -1.884139,2.35517 -.553533,.67276 .181166,1.44934 .181166,1.44934 l .61597,.39857 -.108702,.90583 .326103,1.08701 c 0,0 .298925,.26269 .398567,-.0725 .28081,.28081 .02966,1.09282 .72467,1.19571 -.24887,-.52003 .181168,-1.95661 .181168,-1.95661 0,0 1.21382,.0906 1.521805,-.4348 .307985,-.52539 -.289867,-1.66674 -.289867,-1.66674 0,0 .362333,0 .362333,0 -.407626,-.28081 -.543501,-1.12324 -.543501,-1.12324 0,0 1.684856,-.53444 1.66674,-1.81167 -.01812,-1.27723 -2.735628,-2.63599 -1.739207,-3.29725 1.105119,-.73373 3.025494,1.90226 4.674117,.68844 1.631493,-1.20121 .579735,-.0362 .579735,-.0362 0,0 .745692,-1.67829 -.905836,-1.23193 z"/>
		<path d="m 102.25103,89.971467 c -2.24183,-.935164 -6.821574,-.992812 -9.377262,-2.254642 -1.120915,.07046 -1.620524,.954379 -1.665361,1.306667 -1.172157,-.05765 -1.966406,1.78706 -1.793464,2.15216 -2.132942,-.864709 -3.125754,2.510849 -2.433988,3.202615 -1.819087,.07686 -1.594903,2.401961 -1.767845,3.048891 -.582876,1.415557 .129802,1.891866 1.281046,1.38353 .172942,.614903 -.06911,.95934 -.589282,1.076079 3.157528,3.613263 4.942078,-2.22365 7.7119,-2.2034 3.458261,-1.012405 4.816736,-2.715818 4.816736,-2.715818 l 1.357909,.179345 c 0,0 2.459611,-5.175427 2.459611,-5.175427 z"/>
		<path d="m 108.45129,87.383748 c 0,1.825357 -1.47974,3.3051 -3.3051,3.3051 -1.82535,0 -3.3051,-1.479743 -3.3051,-3.3051 0,-1.825356 1.47975,-3.3051 3.3051,-3.3051 1.82536,0 3.3051,1.479744 3.3051,3.3051 z"/>
		<path d="m 99.330243,113.41462 c -2.049675,-.37151 -5.444448,-2.49804 -5.79033,-5.27791 1.908758,-7.49413 11.754917,-3.58072 12.604427,-9.217322 -.21639,-3.718721 .44951,-7.399934 2.51192,-10.510797 .96079,-1.216994 2.2034,-1.537257 2.2034,-1.537257 0,0 .22257,.793721 -.10248,1.332288 1.62693,-.179346 3.85595,.730197 5.38039,.81987 .44837,.909544 .40994,1.242615 .30745,1.793466 -.10248,.550849 -.71738,.409934 -.71738,.409934 -.39767,.377227 -.87565,.761051 -1.94719,.56366 -.80706,.614903 -2.51085,.76863 -2.51085,.76863 0,0 3.56131,3.753464 2.97202,4.919216 .74301,.345882 1.84471,1.998433 1.84471,1.998433 0,0 2.43399,-1.281046 3.22824,-2.459609 1.40915,0 3.71503,1.473203 4.86798,1.639739 1.40915,1.140131 2.8183,2.305889 2.8183,2.305889 0,0 -1.67817,1.1017 -2.40837,-.3587 -.88392,.0769 -2.79268,-2.036862 -5.43164,-1.383528 -.0769,2.344318 -2.66457,3.996868 -2.66457,3.996868 0,0 2.4153,-.33802 3.74065,.46117 1.37072,1.15295 3.38197,2.71582 3.38197,2.71582 l 1.79346,3.07451 c 0,0 -1.63974,.28183 -2.25464,-1.8447 -.61491,1.7166 -.64052,-1.06327 -3.07451,-2.35713 -.74301,.0897 -1.11451,.14092 -1.74223,-.35869 -1.75503,.47399 -3.83032,1.49882 -6.30275,1.2298 -1.75503,.55085 -3.03608,2.01125 -4.81673,2.81831 -1.78066,.80706 -2.30588,.40993 -2.30588,.40993 l -1.43478,.0512 c -.20699,.86376 -.0897,2.17778 -.87111,2.40837 .49961,.53804 -.35869,2.83111 -1.2298,3.22824 .40993,1.4732 1.61084,1.92416 2.86954,2.66457 0,0 1.11451,-.51241 1.84471,.15373 .73019,.66614 1.48601,2.56209 1.48601,2.56209 0,0 -1.51973,.10268 -1.99843,-.10248 -.47871,-.20516 -.52523,-.70458 -1.07608,-.56366 -3.47164,-3.08732 -5.302437,-1.85932 -5.636605,-2.56209 -.34252,-.72035 .81987,-2.60053 .461178,-3.7919 z"/>
		<path d="m 90.989736,99.654517 c .181166,-.226459 1.449337,.253634 1.449337,.253634 l 2.318942,1.449339 4.710351,3.04361 1.666744,2.42764 -3.007381,-.9783 -4.16685,-3.58711 -2.246475,-1.44934 c 0,0 -.905836,-.933014 -.724668,-1.159473 z"/>
		<path d="m 118.85339,107.36808 c -1.62693,-.40994 -5.6366,4.45804 -5.6366,4.45804 l 3.02327,3.27948 c 0,0 .0897,-5.58536 2.61333,-7.73752 z"/>
		<path d="m 99.022792,93.788985 c -.887227,1.136807 -.966615,3.428679 .187565,4.353064 .108807,1.391081 1.291533,4.197081 2.220803,4.460541 1.01527,.28784 5.07294,1.2298 6.66144,.97359 -.30381,2.57453 1.71643,4.64103 3.58693,5.9953 -.0136,.23103 -.0168,.51306 .19928,.79864 .20936,.27664 1.19226,.32734 1.23549,.17495 .43591,.6126 2.54731,.88157 2.70028,.60869 .14884,-.26552 -3.10559,-2.53073 -3.8276,-3.22202 -.6133,-1.14422 -1.77491,-3.69381 -2.04967,-5.73909 -1.59729,-1.90034 -4.33949,-1.86229 -4.33949,-1.86229 l .0864,-3.723072 .15373,-4.201833 -1.48601,-.768627 c 0,0 .29956,-.136521 .46117,-.307452 .36089,.15517 1.03909,-.569877 1.12732,-.774844 .34187,.121133 .65138,.119518 .71117,-.06314 .0528,-.161316 .11399,-.879415 .23863,-1.250496 1.12106,-.987049 -.16365,-3.079974 -1.87783,-3.114385 -1.69607,-.03441 -2.0765,2.023187 -2.04399,2.179599 .15932,.645562 .12499,.971019 0,1.127321 -.12777,.159757 -.71739,.512418 -.71739,.512418 0,0 -.94797,-.448367 -2.10092,0 -1.152939,.448366 -2.446797,1.050458 -2.510848,1.793466 -.52523,.07686 -1.383531,.755816 -1.537257,1.332288 -.461177,-.08967 -1.063268,.29464 -2.049674,1.895949 -1.767845,.781437 -1.870327,4.560524 -1.870327,4.560524 0,0 -.47719,.694964 -.499609,1.063264 -.02242,.3683 .166536,.70458 .397124,.64053 .02562,.24339 .345882,.46117 .486798,.38431 .05124,.2434 .402976,.37952 .614902,.34588 .01922,.16654 .701374,.12491 .755818,-.0256 .06008,-.16611 -.0675,-.99692 .0128,-1.06327 .07366,-.0609 .640524,.37151 .794248,.25621 .153727,-.11529 -.02936,-.48449 -.115294,-.62771 -.07686,-.12811 -.56366,-.26902 -.678954,-.871109 -.115294,-.602091 .307451,-1.434773 .307451,-1.434773 0,0 1.92157,-1.511634 2.139348,-2.805491 1.447582,.140915 2.213008,-1.124119 2.626146,-1.601309 z"/>
		<path d="m 95.679259,88.370158 c .438759,-1.072875 2.024054,-.973594 2.024054,-.973594 0,0 .566865,-1.492421 2.703007,-.602093 .80386,-.621307 2.92079,.26902 2.92079,.26902 0,0 .7927,-1.056202 1.8319,-.935163 1.92477,.224182 2.24503,1.988825 2.12653,2.293073 -1.05366,.265816 -2.87901,-.856292 -4.26588,-.53804 -.81026,.457974 -2.12334,.94157 -2.61334,1.601309 -1.284248,.134509 -2.654966,-1.181765 -4.727061,-1.114512 z"/>
		<path d="m 99.688935,90.150813 c .480395,-.29464 1.658835,-.812616 2.459615,-.179346 .83908,.903137 2.12653,1.742224 2.12653,1.742224 l 1.4604,.614901 .66614,.409936 -.43556,6.687063 c -1.35175,-1.383131 -2.61859,-1.625256 -3.58692,-3.25386 -.51883,-.69817 -.1217,-2.37634 -1.02484,-3.484446 -.90314,-1.108105 -1.863926,-1.857518 -1.665365,-2.536472 z"/>
		<path d="m 103.20041,92.081722 c 0,0 .76544,-.144934 .97831,.03623 .26722,.09058 .52538,.167579 .59785,.398569 .28987,.08605 .48915,.235516 .48915,.452917 .27175,.07247 .38045,.56162 .38045,.56162 l -.25363,.380451 c 0,0 -.28987,-.271752 -.3261,-.561619 -.1834,-.09031 -.5888,-.185697 -.68844,-.452918 -.31704,-.0317 -.52085,-.194755 -.57973,-.471035 -.2944,.06794 -.59786,-.344219 -.59786,-.344219 z"/>
		<path d="m 109.6811,87.716825 c -.43556,-.486797 -1.20418,-.128104 -1.20418,-.128104 l -2.04968,3.535688 -.89673,.743007 -.0769,2.76706 .743,2.587713 -.25621,1.998433 c 0,0 1.03222,-.96837 1.15295,-1.511636 .11529,-.518824 -.38432,-2.203398 -.38432,-2.203398 0,0 -.6149,-1.050458 .12811,-2.997648 .743,-1.947191 2.43398,-3.56131 2.84392,-4.791115 z"/>
		<path d="m 114.7389,90.8682 c 0,0 -3.20028,4.573336 -8.43976,6.200264 -1.44759,.345882 -.92236,-3.381961 -.92236,-3.381961 l -.35869,.102482 c 0,0 -.80706,3.650982 1.12732,3.689413 5.2651,-1.037648 9.21561,-6.580616 9.21561,-6.580616 L 114.7389,90.8682 z"/>
		<path d="m 116.9062,117.15527 c 0,0 -.4868,.3587 -1.12732,0 -.33307,-.76862 -1.2298,-.81987 -1.2298,-.81987 0,0 -.57758,-1.65928 -1.48602,-1.17856 -.14091,-.8583 -1.12732,-.40993 -1.12732,-.40993 0,0 -.0256,-1.24262 -1.17856,-1.07608 .38431,-1.42197 -1.5885,-1.33229 -1.5885,-1.33229 0,0 -.064,-1.60131 -2.97203,-1.28105 6.26432,-2.80549 11.22197,4.4068 11.22197,4.4068"/>
		<path d="m 119.87823,117.77018 c 0,0 1.44758,1.62693 2.2034,1.63974 .75582,.0128 .81987,-1.5885 .81987,-1.5885 0,0 .2434,.69176 .6149,.51242 -.0384,.48679 .46118,.6149 .46118,.6149 0,0 -1.30667,3.03608 -5.0217,.15372"/>
		<path d="m 108.55378,118.38508 -.51242,2.10091 c 0,0 -.65333,.58928 -.46118,.71739 .19216,.1281 1.22981,-.20497 1.22981,-.20497 0,0 1.61412,-.19215 2.10091,-.66614 .33308,.75582 1.07608,.81987 1.07608,.81987 0,0 .0512,-.32026 -.0512,-.51242 .35869,.0641 .66615,-.0512 .66615,-.0512 0,0 .20496,-.58929 -.25621,-.81987 .0512,-.43556 .26901,-.81987 -.51242,-.76863 -.57647,.6149 -1.99844,1.31948 -2.35713,1.07608 -.35869,-.2434 1.40915,-1.02484 .92236,-2.04967"/>
	</g>
	<path d="m 75.953768,113.40146 2.083624,-.49669 -.230182,-.96558 c -.05274,-.22154 -.140294,-.37212 -.262607,-.45176 -.122272,-.0796 -.332083,-.10192 -.629446,-.0669 l -.03456,-.14462 1.794343,-.42772 .03456,.14462 c -.205281,.0516 -.350045,.11445 -.434371,.18823 -.08431,.0738 -.139858,.16141 -.166637,.26283 -.02678,.10141 -.01904,.24072 .02319,.41794 l .230183,.96558 1.665336,-.39698 c .268438,-.064 .441616,-.12317 .51955,-.17754 .05893,-.0416 .101917,-.10968 .128952,-.20426 .03521,-.12958 .0379,-.25691 .0081,-.38202 l -.04572,-.19152 .144618,-.0346 .54235,2.27518 -.144618,.0346 -.04465,-.18767 c -.05228,-.21889 -.153925,-.36268 -.30524,-.43127 -.0983,-.0427 -.306437,-.0261 -.624389,.0497 l -3.424493,.81632 c -.268435,.064 -.441612,.12317 -.51955,.17753 -.05893,.0416 -.102225,.10838 -.129895,.20035 -.03582,.12697 -.03853,.25431 -.0081,.38201 l .04465,.18768 -.144619,.0346 -.940257,-3.94442 1.152844,-.32851 .03261,.13683 c -.231431,.12678 -.394415,.24896 -.488964,.3665 -.09453,.11756 -.152179,.24837 -.172938,.39239 -.02075,.14403 .0018,.35418 .06766,.63043 l .278628,1.16886 z m -1.342174,-9.40196 c .03979,-.70618 .342433,-1.30297 .907918,-1.79035 .565492,-.48738 1.249476,-.70846 2.051954,-.66326 .826557,.0466 1.497984,.34604 2.014281,.89839 .516299,.55236 .753575,1.19902 .711829,1.93998 -.0422,.74898 -.343812,1.36327 -.904837,1.84285 -.561023,.47958 -1.264175,.69556 -2.109457,.64794 -.864003,-.0487 -1.552271,-.38264 -2.064806,-1.00187 -.444672,-.53759 -.646965,-1.16215 -.606898,-1.87368 z m .288609,.0927 c -.02742,.48684 .13113,.88756 .475661,1.20214 .428745,.39179 1.076456,.6121 1.943134,.66093 .888081,.05 1.58223,-.10137 2.082444,-.45424 .380223,-.27106 .583818,-.64601 .610797,-1.12483 .02878,-.51091 -.146715,-.94411 -.526519,-1.2996 -.379801,-.35548 -.999029,-.55741 -1.857687,-.6058 -.930876,-.0524 -1.635347,.0917 -2.113413,.43237 -.380364,.27376 -.585168,.67009 -.614413,1.18903 z m 7.893977,-9.951087 -.517597,1.359604 -3.037478,.817404 c -.04359,.129616 -.08066,.234477 -.111171,.314595 -.0124,.03256 -.02636,.06738 -.04191,.104445 -.01555,.03709 -.03221,.07518 -.04997,.114283 l 1.479792,.563353 c .320495,.122014 .532898,.16274 .637208,.122179 .146412,-.05317 .25581,-.174955 .328256,-.36525 l .07577,-.199053 .13896,.0529 -.830728,2.182128 -.138961,-.0529 .07293,-.191546 c .08198,-.215323 .07048,-.396009 -.03445,-.542037 -.05761,-.08213 -.231639,-.178479 -.52208,-.289057 l -3.290093,-1.252529 c -.320492,-.122011 -.532895,-.162736 -.637209,-.122181 -.147358,.05566 -.257711,.179976 -.331116,.372762 l -.07293,.191546 -.138961,-.0529 .706337,-1.855373 c .205899,-.540832 .397134,-.924562 .573707,-1.151187 .176581,-.226619 .404736,-.389165 .684466,-.487652 .279729,-.09849 .566075,-.09195 .859028,.01957 .312987,.119159 .545813,.324615 .69848,.616371 .152672,.291768 .195075,.669843 .127224,1.134221 l 1.861365,-.495421 c .427026,-.112641 .728533,-.234312 .904455,-.365208 .175942,-.130816 .33184,-.329479 .467694,-.595975 l .13896,.0529 z m -3.994726,2.620258 c .01811,-.04758 .03447,-.08865 .04906,-.123221 .01461,-.03458 .02618,-.06313 .03477,-.08567 .184927,-.485749 .219173,-.891976 .102738,-1.21868 -.1164,-.32671 -.337403,-.55201 -.662906,-.675933 -.31799,-.121052 -.614405,-.119943 -.889248,.0033 -.274836,.123282 -.474689,.348932 -.599565,.676928 -.05529,.145231 -.106324,.350838 -.153122,.616831 l 2.118278,.806423 z m 11.596191,-18.052694 1.0531,1.367219 -.118059,.07646 c -.352216,-.282599 -.681755,-.453805 -.98862,-.513616 -.4425,-.08686 -.877379,.0081 -1.304641,.284774 -.582417,.377232 -.876133,.894641 -.881141,1.552245 -.0021,.553616 .170833,1.099141 .518935,1.636579 .282543,.436259 .62467,.779664 1.026357,1.030226 .401685,.250564 .793391,.37113 1.175117,.361702 .381725,-.0094 .716506,-.107351 1.004346,-.293776 .168645,-.109231 .31785,-.236189 .447591,-.380868 .129733,-.144673 .240742,-.305948 .333025,-.483823 l -.856391,-1.322252 c -.148562,-.229364 -.263208,-.36818 -.343935,-.416445 -.08075,-.04825 -.169662,-.06726 -.266771,-.05704 -.09711,.01023 -.237849,.07513 -.422268,.194484 l -.08302,-.128168 1.770872,-1.146953 .08302,.128167 -.08432,.05462 c -.175405,.113601 -.25784,.250002 -.247317,.409161 .0089,.112332 .09274,.29106 .2515,.536166 l .906641,1.399831 c -.168309,.306916 -.357271,.574541 -.566887,.802873 -.209624,.228337 -.468472,.442273 -.776545,.641803 -.883751,.572385 -1.738507,.723799 -2.564273,.454232 -.619324,-.202171 -1.108858,-.580975 -1.468602,-1.136413 -.260694,-.402522 -.413788,-.850805 -.459241,-1.344858 -.05463,-.587057 .04172,-1.128268 .289065,-1.623636 .208349,-.412645 .540769,-.766798 .997262,-1.062465 .166402,-.107764 .326373,-.192216 .479898,-.253351 .153512,-.0612 .384968,-.12637 .694273,-.195904 .156474,-.03441 .25611,-.0654 .298875,-.09297 .04269,-.02776 .06653,-.071 .07138,-.130029 .0049,-.059 -.02647,-.148047 -.09404,-.267089 l .124801,-.08083 z m 8.873469,.61442 -2.039,.542195 -.1363,.926149 c -.03364,.227969 -.03703,.392423 -.01019,.493404 .02126,.08029 .07829,.140668 .170857,.181201 .09257,.04053 .268118,.03612 .526684,-.01322 l .03817,.143715 -1.658388,.440981 -.03817,-.143715 c .209755,-.09736 .338732,-.185723 .386942,-.265066 .099,-.159397 .178162,-.450743 .237485,-.874043 l .700019,-4.826954 .13591,-.0362 2.998107,3.893475 c .24122,.31289 .43597,.505756 .58426,.5786 .14827,.07285 .33159,.08718 .54994,.04297 l .0382,.143715 -2.077844,.552516 -.03817,-.143715 c .20698,-.06609 .33943,-.138781 .397384,-.217961 .058,-.07918 .0756,-.161488 .0529,-.246926 -.0303,-.113914 -.129929,-.280103 -.298896,-.498542 l -.519861,-.672657 z m -.185162,-.258486 -1.459226,-1.890792 -.35063,2.372057 1.809855,-.481267 z m 9.620888,-.02828 .13143,.03327 -.52332,1.459668 -4.21652,-.164035 .006,-.148584 .20481,.008 c .23023,.009 .39779,-.0596 .50268,-.20567 .0596,-.08349 .0954,-.280494 .10745,-.591049 l .1367,-3.51377 c .0132,-.339996 -.016,-.554282 -.0876,-.642873 -.0998,-.121862 -.25281,-.186793 -.45895,-.194813 l -.20481,-.008 .006,-.148584 2.46567,.09592 -.006,.148584 c -.28903,-.01392 -.49287,.005 -.61151,.05664 -.11865,.05169 -.20105,.119545 -.24721,.203541 -.0462,.08402 -.0756,.287979 -.0882,.611909 l -.1331,3.421408 c -.009,.222205 .007,.375633 .0465,.460291 .0299,.05749 .0778,.100886 .14374,.130261 .0659,.02938 .27418,.05088 .62489,.06453 l .39756,.01547 c .41764,.01626 .71198,-.0031 .88304,-.05815 .17109,-.05493 .32924,-.158108 .47454,-.309322 .1453,-.151191 .29412,-.392751 .44646,-.724657 z m 7.25733,1.941994 .11707,.06835 -.90692,1.257768 -4.00635,-1.324819 .0467,-.141176 .1946,.06436 c .21875,.07234 .39874,.05284 .53997,-.05847 .0803,-.06374 .16929,-.243142 .26686,-.538208 l 1.10402,-3.338625 c .10682,-.323046 .13808,-.537047 .0938,-.642005 -.0622,-.144726 -.19123,-.249469 -.38709,-.314244 l -.1946,-.06436 .0467,-.141176 2.34276,.774703 -.0467,.141176 c -.27388,-.09339 -.47498,-.131664 -.60329,-.11484 -.12831,.01684 -.22625,.05931 -.2939,.12715 -.0676,.06794 -.15231,.255815 -.25409,.563594 l -1.075,3.250867 c -.0698,.21112 -.0974,.362848 -.0828,.455162 .0128,.06352 .0469,.118515 .10206,.164973 .0552,.04647 .24939,.124791 .58261,.234987 l .37774,.124912 c .39682,.13122 .68503,.194073 .86463,.188562 .17959,-.0055 .36014,-.06081 .54163,-.165836 .18148,-.105067 .39135,-.295988 .62961,-.572753 z m 5.84867,3.097258 -1.72213,-1.218916 -.79864,.488373 c -.19664,.120128 -.32513,.222852 -.38549,.308133 -.048,.06779 -.0579,.150212 -.0298,.247263 .0282,.09704 .14395,.229073 .34742,.396071 l -.0859,.121378 -1.40067,-.991385 .0859,-.121371 c .2091,.09875 .35956,.141251 .45138,.127462 .18582,-.02604 .46028,-.151819 .82341,-.377289 l 4.15574,-2.553289 .11481,.08126 -1.07065,4.795986 c -.0858,.385633 -.10928,.658723 -.0703,.819266 .039,.160527 .14539,.310507 .31915,.449919 l -.0859,.121377 -1.75494,-1.242133 .0859,-.121377 c .18331,.116634 .32394,.171846 .42187,.165664 .0979,-.0062 .17241,-.04539 .22351,-.117521 .0681,-.09623 .13193,-.279163 .19151,-.548824 l .18376,-.830032 z m .08,-.307747 .51785,-2.33158 -2.04645,1.249647 1.5286,1.081933 z m 6.46272,1.191026 .88066,1.188112 -1.29958,5.11026 2.52474,-1.871399 c .26904,-.199419 .41459,-.353992 .43665,-.463724 .0314,-.146631 -.0168,-.306065 -.14439,-.478253 l -.11246,-.151742 .11946,-.08854 1.12954,1.523884 -.11946,.08854 -.11487,-.154972 c -.13721,-.185109 -.29049,-.274922 -.45985,-.269446 -.10398,.0037 -.27868,.0964 -.52401,.278374 l -3.69026,2.735306 -.0862,-.116223 1.38617,-5.499598 -2.69586,1.998233 c -.26905,.19942 -.41539,.352916 -.43904,.460495 -.0298,.14879 .0183,.308215 .14439,.478254 l .11487,.154972 -.11946,.08854 -1.12954,-1.523885 .11946,-.08854 .11247,.151742 c .13879,.187258 .29287,.27815 .46223,.272674 .10397,-.0037 .27868,-.0964 .52402,-.278354 l 3.04454,-2.256689 c .0544,-.237069 .0809,-.405979 .0796,-.506727 -.001,-.100748 -.0286,-.229767 -.0818,-.387074 -.0269,-.07677 -.0874,-.178666 -.18154,-.305649 l .11946,-.08854 z m 6.87102,12.662419 -1.18468,.483091 -.0508,-.144002 c .20233,-.102852 .34047,-.194356 .41442,-.274511 .11879,-.130134 .1899,-.272528 .21334,-.427171 .0234,-.154649 -.002,-.33806 -.0774,-.550222 l -.2561,-.723607 -3.92502,1.388718 c -.31574,.11164 -.50066,.215498 -.55483,.311397 -.0721,.133512 -.0729,.300032 -.002,.499568 l .0629,.178085 -.14018,.04957 -.77076,-2.17846 .14019,-.04957 .0644,.181844 c .0769,.217199 .19703,.348052 .36054,.392508 .10048,.02697 .2947,-.01047 .58263,-.112365 l 3.92502,-1.388717 -.2184,-.617576 c -.0849,-.239933 -.16291,-.404178 -.23401,-.492698 -.0944,-.114356 -.22643,-.194136 -.39587,-.239334 -.16946,-.0452 -.3735,-.03554 -.61212,.029 l -.0508,-.144002 1.22623,-.365639 1.48389,4.194011 z m -4.31356,9.665919 -.0755,-1.45284 2.4487,-1.97441 c -.0125,-.13618 -.0209,-.24707 -.0254,-.33268 -.002,-.0348 -.003,-.0722 -.004,-.11247 -6.7e-4,-.0402 -9.1e-4,-.0818 -4.5e-4,-.12474 l -1.58126,.0822 c -.34247,.0178 -.55323,.0663 -.63228,.14555 -.11245,.10779 -.16337,.26336 -.1528,.46671 l .0111,.21271 -.14849,.008 -.12122,-2.33176 .14849,-.008 .0106,.20469 c .012,.2301 .0954,.39075 .25042,.48195 .0859,.0519 .28397,.0697 .59434,.0536 l 3.5157,-.18276 c .34247,-.0178 .55323,-.0663 .63229,-.14554 .11228,-.11047 .16309,-.26871 .15238,-.47473 l -.0106,-.20467 .14849,-.008 .10307,1.9826 c .03,.57792 .01,1.00619 -.06,1.28482 -.07,.27863 -.21311,.51947 -.42924,.72253 -.21615,.20305 -.48074,.31272 -.79378,.32899 -.33444,.0174 -.63041,-.0765 -.8879,-.28181 -.25749,-.20526 -.44896,-.53401 -.57442,-.98625 l -1.50277,1.2049 c -.34518,.27549 -.57183,.50861 -.67995,.69934 -.10812,.19073 -.17053,.43543 -.1872,.73409 l -.14849,.008 z m 2.59639,-4.01029 c .003,.0508 .004,.095 .005,.13254 6.4e-4,.0375 .002,.0683 .003,.0924 .027,.51906 .1597,.90452 .39806,1.15641 .23845,.25186 .53158,.36875 .87941,.35067 .33979,-.0177 .61052,-.13838 .81217,-.36215 .20164,-.22378 .29336,-.5109 .27514,-.8614 -.008,-.15519 -.0444,-.3639 -.10902,-.62613 l -2.26353,.11767 z m 1.49413,11.21008 -.48239,1.83865 -.14382,-.0377 .0265,-.10106 c .0177,-.0674 .0137,-.17368 -.0119,-.31889 -.0256,-.14521 -.0803,-.28555 -.16376,-.42104 -.0836,-.1355 -.23063,-.31396 -.4412,-.53539 l -1.66842,-1.79635 -1.32165,-.34676 c -.32394,-.085 -.53559,-.10174 -.63496,-.0503 -.13468,.0699 -.2299,.21113 -.28565,.42363 l -.0449,.17104 -.14382,-.0377 .58744,-2.23904 .14382,.0377 -.049,.1866 c -.0585,.22285 -.0326,.39862 .0777,.52727 .068,.0788 .24967,.15691 .54509,.23442 l 1.2478,.32737 2.58733,-.86676 c .30401,-.10305 .49641,-.17651 .57717,-.22043 .0807,-.044 .19165,-.14983 .33267,-.31782 .0395,-.045 .0722,-.11677 .098,-.21525 l .14383,.0378 -.59152,2.25458 -.14382,-.0377 .0306,-.11662 c .0319,-.12181 .0328,-.24136 .003,-.35868 -.0302,-.11731 -.10225,-.19095 -.21628,-.22086 -.0933,-.0245 -.28248,.0104 -.56755,.10454 l -1.98736,.65431 1.35357,1.46031 c .20279,.21939 .3638,.34473 .48301,.37601 .0726,.019 .14227,.0172 .20915,-.005 .0669,-.0226 .12568,-.0647 .17643,-.12614 .0508,-.0615 .0945,-.16218 .1312,-.30212 l .14382,.0377 z" font-family="Times New Roman" font-size="4"/>
</svg>