<?xml version="1.0" encoding="UTF-8" standalone="no"?>
<!-- Created with Inkscape (http://www.inkscape.org/) -->

<svg
   xmlns:dc="http://purl.org/dc/elements/1.1/"
   xmlns:cc="http://creativecommons.org/ns#"
   xmlns:rdf="http://www.w3.org/1999/02/22-rdf-syntax-ns#"
   xmlns:svg="http://www.w3.org/2000/svg"
   xmlns="http://www.w3.org/2000/svg"
   xmlns:sodipodi="http://sodipodi.sourceforge.net/DTD/sodipodi-0.dtd"
   xmlns:inkscape="http://www.inkscape.org/namespaces/inkscape"
   version="1.1"
   width="600"
   height="400"
   id="svg2"
   inkscape:version="0.48.1 "
   sodipodi:docname="ZZ1.svg">
  <sodipodi:namedview
     pagecolor="#ffffff"
     bordercolor="#666666"
     borderopacity="1"
     objecttolerance="10"
     gridtolerance="10"
     guidetolerance="10"
     inkscape:pageopacity="0"
     inkscape:pageshadow="2"
     inkscape:window-width="1280"
     inkscape:window-height="1004"
     id="namedview15"
     showgrid="false"
     inkscape:zoom="0.685625"
     inkscape:cx="315.73643"
     inkscape:cy="-103.03936"
     inkscape:window-x="-8"
     inkscape:window-y="-8"
     inkscape:window-maximized="1"
     inkscape:current-layer="g3291"
     fit-margin-top="0"
     fit-margin-left="0"
     fit-margin-right="0"
     fit-margin-bottom="0" />
  <metadata
     id="metadata8">
    <rdf:RDF>
      <cc:Work
         rdf:about="">
        <dc:format>image/svg+xml</dc:format>
        <dc:type
           rdf:resource="http://purl.org/dc/dcmitype/StillImage" />
        <dc:title />
      </cc:Work>
    </rdf:RDF>
  </metadata>
  <defs
     id="defs6" />
  <g
     id="g2987"
     transform="translate(-432.10897,-589.70685)">
    <g
       transform="translate(432.10897,589.70685)"
       id="g3291">
      <rect
         y="2.7533531e-014"
         x="0"
         style="fill:#01327a;fill-opacity:1"
         id="rect1379"
         height="400"
         width="600" />
      <rect
         style="fill:#ffffff;fill-opacity:1"
         y="2.7533531e-014"
         id="rect1383"
         height="159.99998"
         width="160"
         x="80" />
      <rect
         y="2.7533531e-014"
         x="160"
         height="159.99998"
         width="80"
         id="rect2278"
         style="fill:#cf142b;fill-opacity:1;fill-rule:evenodd;stroke:none" />
      <rect
         y="-10"
         x="-10"
         height="169.87405"
         width="249.91736"
         id="rect3170"
         style="fill:none;stroke:#ffffff;stroke-width:4.20587254;stroke-linecap:butt;stroke-linejoin:miter;stroke-miterlimit:4;stroke-opacity:1;stroke-dasharray:none;stroke-dashoffset:0" />
      <path
         inkscape:connector-curvature="0"
         sodipodi:nodetypes="cccccccccccccccccccccccccccccccc"
         id="path3219"
         d="m 354.99732,182.97585 12.875,20.5 36.625,0 0,71.5 -27.5,-43 -37,59 23,0 3.4375,-6.5 23.03125,0 26.53125,42.5 26.53125,-42.5 23.03125,0 3.4375,6.5 23,0 -37,-59 -27.5,43 0,-39.5 16.5,0 12.25,-19.5 -28.75,0 0,-12.5 36.625,0 12.875,-20.5 -122,0 z m 22.17725,73.70095 8.97428,13.95119 -15.97318,0.0886 6.9989,-14.03981 z m 77.291,1.41801 7.17615,12.53317 -14.55518,-0.0886 7.37903,-12.44455 z"
         style="fill:#ffffff;fill-opacity:1;fill-rule:evenodd;stroke:none" />
      <path
         d="m 456,298.63999 4.73445,14.8436 15.58013,-0.0842 -12.65408,9.08966 4.8946,14.79156 -12.5551,-9.22588 -12.5551,9.22588 4.8946,-14.79156 -12.65407,-9.08966 15.58012,0.0842 z"
         inkscape:randomized="0"
         inkscape:rounded="0"
         inkscape:flatsided="false"
         sodipodi:arg2="-0.9424778"
         sodipodi:arg1="-1.5707963"
         sodipodi:r2="8.0547266"
         sodipodi:r1="21.360008"
         sodipodi:cy="320"
         sodipodi:cx="456"
         sodipodi:sides="5"
         id="path3255"
         style="fill:#ffffff;fill-opacity:1;fill-rule:evenodd;stroke:none"
         sodipodi:type="star"
         transform="translate(4.6085281,8.1431142)" />
      <path
         transform="translate(-40.505367,42.592725)"
         sodipodi:type="star"
         style="fill:#ffffff;fill-opacity:1;fill-rule:evenodd;stroke:none"
         id="path3257"
         sodipodi:sides="5"
         sodipodi:cx="456"
         sodipodi:cy="320"
         sodipodi:r1="21.360008"
         sodipodi:r2="8.0547266"
         sodipodi:arg1="-1.5707963"
         sodipodi:arg2="-0.9424778"
         inkscape:flatsided="false"
         inkscape:rounded="0"
         inkscape:randomized="0"
         d="m 456,298.63999 4.73445,14.8436 15.58013,-0.0842 -12.65408,9.08966 4.8946,14.79156 -12.5551,-9.22588 -12.5551,9.22588 4.8946,-14.79156 -12.65407,-9.08966 15.58012,0.0842 z" />
      <path
         transform="matrix(-1,0,0,1,827.61896,8.2039372)"
         sodipodi:type="star"
         style="fill:#ffffff;fill-opacity:1;fill-rule:evenodd;stroke:none"
         id="path3263"
         sodipodi:sides="5"
         sodipodi:cx="456"
         sodipodi:cy="320"
         sodipodi:r1="21.360008"
         sodipodi:r2="8.0547266"
         sodipodi:arg1="-1.5707963"
         sodipodi:arg2="-0.9424778"
         inkscape:flatsided="false"
         inkscape:rounded="0"
         inkscape:randomized="0"
         d="m 456,298.63999 4.73445,14.8436 15.58013,-0.0842 -12.65408,9.08966 4.8946,14.79156 -12.5551,-9.22588 -12.5551,9.22588 4.8946,-14.79156 -12.65407,-9.08966 15.58012,0.0842 z" />
      <path
         d="m 456,298.63999 4.73445,14.8436 15.58013,-0.0842 -12.65408,9.08966 4.8946,14.79156 -12.5551,-9.22588 -12.5551,9.22588 4.8946,-14.79156 -12.65407,-9.08966 15.58012,0.0842 z"
         inkscape:randomized="0"
         inkscape:rounded="0"
         inkscape:flatsided="false"
         sodipodi:arg2="-0.9424778"
         sodipodi:arg1="-1.5707963"
         sodipodi:r2="8.0547266"
         sodipodi:r1="21.360008"
         sodipodi:cy="320"
         sodipodi:cx="456"
         sodipodi:sides="5"
         id="path2191"
         style="fill:#ffffff;fill-opacity:1;fill-rule:evenodd;stroke:none"
         sodipodi:type="star"
         transform="translate(42.517453,-92.952019)" />
      <path
         transform="translate(-121.80101,-93.2457)"
         sodipodi:type="star"
         style="fill:#ffffff;fill-opacity:1;fill-rule:evenodd;stroke:none"
         id="path2193"
         sodipodi:sides="5"
         sodipodi:cx="456"
         sodipodi:cy="320"
         sodipodi:r1="21.360008"
         sodipodi:r2="8.0547266"
         sodipodi:arg1="-1.5707963"
         sodipodi:arg2="-0.9424778"
         inkscape:flatsided="false"
         inkscape:rounded="0"
         inkscape:randomized="0"
         d="m 456,298.63999 4.73445,14.8436 15.58013,-0.0842 -12.65408,9.08966 4.8946,14.79156 -12.5551,-9.22588 -12.5551,9.22588 4.8946,-14.79156 -12.65407,-9.08966 15.58012,0.0842 z" />
    </g>
  </g>
</svg>
