<svg xmlns="http://www.w3.org/2000/svg" fill-rule="evenodd" clip-rule="evenodd" width="600" height="300" viewBox="0 0 1400 700"><title>Flag of Tajikistan</title>
<rect width="1400" fill="#060" height="700"/><rect width="1400" fill="#fff" height="500"/><rect width="1400" fill="#c00" height="200"/>
<path d="M672,340.74c9.5126-12.782,23.018-4.8543,23.365,5.8866,0.095669,3.0059-0.0011811-0.23858-0.18307,29.999,0.1122,29.385-41.183,46.022-63.834,24.317-13.571,24.879-34.586,32.676-59.734,17.467,3.6496,36.426,58.252,28.989,62.32-6.4288,17.154,30.115,54.873,21.49,65.891-14.999,10.351,35.966,48.729,44.426,65.93,15.001,4.0677,35.418,58.671,42.854,62.32,6.4288-25.147,15.208-46.163,7.4114-59.734-17.468-22.651,21.705-63.945,5.0681-63.833-24.315-0.18307-30.239-0.27992-26.993-0.18307-30,0.34488-10.741,13.852-18.667,23.365-5.8854,8.2098-51.965-64.042-51.474-55.689-0.0011811v-0.0011811zm6.6874-13.108c9.5421-1.8874,16.245,1.813,21.136,9.5847,4.8319-8.2016,12.739-11.472,21.136-9.5398-3.9449-24.992-38.395-24.702-42.272-0.044882z" fill="#F8C300"/>
<path d="M658.84,441.31c-7.6181,16.446-22.845,19.271-36.164,5.9953,0,0,5.3539-3.7831,11.086-4.826-1.0748-4.5744,1.1291-10.902,4.2354-14.324,3.2575,2.2264,7.8036,6.6886,8.9598,11.874,8.0291-1.0394,11.883,1.2815,11.883,1.2815z" fill="#F8C300"/>
<path d="M601.02,470.82c63.509-18.973,132.14-19.251,195.75-0.5315l-4.1681,14.182c-59.556-17.526-128.75-16.977-187.36,0.5315l-4.2248-14.182z" fill="#F8C300"/>
<path d="M776.31,447.77c-12.922,12.709-28.169,9.9898-35.959-7.1256,0,0,6.3437-1.6547,12.077-0.61299,0.60354-4.6594,4.8945-9.8055,9.0083-11.914,2.2642,3.2303,4.9476,9.0083,4.2036,14.269,7.8803,1.8543,10.67,5.3835,10.67,5.3835z" fill="#F8C300"/>
<path d="M717.93,439.24c-10.442,14.815-25.93,14.864-36.653-0.5811,0,0,5.9457-2.7626,11.771-2.7626-0.2374-4.6925,3.0638-10.524,6.7335-13.334,2.8063,2.7744,6.4795,7.9784,6.6874,13.287,8.0846,0.41575,11.461,3.3898,11.461,3.3898z" fill="#F8C300"/>
<polygon points="629.4,235.16,634.92,252.26,652.89,252.23,638.33,262.76,643.92,279.85,629.4,269.26,614.87,279.85,620.46,262.76,605.9,252.23,623.87,252.26" fill="#F8C300"/>
<polygon points="700,215,705.52,232.11,723.5,232.07,708.94,242.61,714.52,259.7,700,249.1,685.48,259.7,691.07,242.61,676.5,232.07,694.48,232.11" fill="#F8C300"/>
<polygon points="770.42,234.74,775.95,251.85,793.92,251.82,779.36,262.35,784.95,279.44,770.42,268.84,755.9,279.44,761.49,262.35,746.93,251.82,764.9,251.85" fill="#F8C300"/>
<polygon points="818.06,286.57,823.58,303.67,841.56,303.64,827,314.18,832.58,331.26,818.06,320.67,803.54,331.26,809.13,314.18,794.56,303.64,812.54,303.67" fill="#F8C300"/>
<polygon points="835.53,359.27,841.05,376.38,859.03,376.34,844.47,386.88,850.05,403.97,835.53,393.37,821.01,403.97,826.6,386.88,812.04,376.34,830.01,376.38" fill="#F8C300"/>
<polygon points="581.85,287.11,587.37,304.22,605.35,304.19,590.78,314.72,596.37,331.81,581.85,321.22,567.33,331.81,572.92,314.72,558.35,304.19,576.33,304.22" fill="#F8C300"/>
<polygon points="564.47,359.37,569.99,376.48,587.96,376.44,573.4,386.98,578.99,404.06,564.47,393.47,549.95,404.06,555.53,386.98,540.97,376.44,558.95,376.48" fill="#F8C300"/>
</svg>
